<?xml version="1.0" standalone="no"?>
<!DOCTYPE svg PUBLIC "-//W3C//DTD SVG 1.1//EN" "http://www.w3.org/Graphics/SVG/1.1/DTD/svg11.dtd" >
<svg xmlns="http://www.w3.org/2000/svg">
<metadata></metadata>
<defs>
<font id="skolar_pebold" horiz-adv-x="849" >
<font-face units-per-em="2048" ascent="1536" descent="-512" />
<missing-glyph horiz-adv-x="419" />
<glyph horiz-adv-x="0" />
<glyph horiz-adv-x="0" />
<glyph horiz-adv-x="682" />
<glyph unicode="&#xd;" horiz-adv-x="0" />
<glyph unicode=" "  horiz-adv-x="419" />
<glyph unicode="&#x09;" horiz-adv-x="419" />
<glyph unicode="&#xa0;" horiz-adv-x="419" />
<glyph unicode="!" horiz-adv-x="626" d="M131 1169q0 122 14 191q85 16 166 16q80 0 174 -16q11 -82 11 -184q0 -265 -84 -785q-58 -10 -103 -10q-42 0 -84 10q-94 483 -94 778zM147 129q0 62 48 103.5t118 41.5q68 0 115 -42t47 -103q0 -63 -47.5 -110.5t-114.5 -47.5q-69 0 -117.5 47.5t-48.5 110.5z" />
<glyph unicode="&#x22;" horiz-adv-x="851" d="M68 1569q102 33 251 30l25 -24q-11 -306 -45 -520q-78 -36 -172 -23q-53 305 -59 537zM489 1569q102 33 252 30l25 -24q-11 -306 -45 -520q-78 -36 -172 -23q-54 312 -60 537z" />
<glyph unicode="#" horiz-adv-x="1185" d="M61 186q-17 99 0 187h209l39 223h-176q-12 37 -12 89.5t12 96.5h209l37 205q47 4 100.5 -6.5t87.5 -30.5l-30 -168h219l37 205q47 4 100.5 -6.5t87.5 -30.5l-31 -168h170q12 -40 12 -94t-12 -92h-202l-39 -223h172q24 -80 0 -187h-205l-37 -206q-47 -5 -100 4t-88 28 l30 174h-219l-37 -209q-45 -4 -99.5 6t-88.5 29l31 174h-177zM465 373h219l39 223h-219z" />
<glyph unicode="$" horiz-adv-x="1026" d="M78 76q3 160 41 286q69 18 155 -8q7 -92 19 -159q56 -21 127 -27v274l-62 23q-49 18 -92.5 42t-84.5 58t-65 80t-24 98q0 68 29.5 122.5t80.5 89t111 55t129 28.5v140q74 31 152 0v-138q176 -14 295 -59q-2 -141 -23 -258q-89 -20 -157 8q-3 61 -19 131q-63 13 -96 15 v-242l96 -35q250 -90 250 -258q0 -129 -101 -225.5t-268 -114.5v-139q-87 -24 -151 0v139q-243 10 -342 74zM371 782q0 -48 71 -88v176q-23 -3 -34 -8q-37 -30 -37 -80zM571 176q38 10 45 17q41 26 41 92q0 51 -86 98v-207z" />
<glyph unicode="%" horiz-adv-x="1499" d="M29 1014q0 95 41 182.5t121.5 146t181.5 58.5q77 0 139 -29.5t100 -80.5t58 -115t20 -136q0 -94 -41 -181t-121.5 -145.5t-181.5 -58.5q-77 0 -139 29.5t-100 80t-58 114t-20 135.5zM254 59l858 1360q84 -22 137 -94l-858 -1354q-93 29 -137 88zM272 1053 q0 -97 25 -162.5t68 -65.5q34 0 45 15q36 56 36 164q0 98 -24.5 162.5t-67.5 64.5q-32 0 -45 -17q-37 -58 -37 -161zM809 332q0 95 41 182.5t121.5 146t181.5 58.5q77 0 139 -29.5t100 -80.5t58 -115t20 -136q0 -94 -41 -181t-121.5 -145.5t-181.5 -58.5q-77 0 -139 29.5 t-100 80t-58 114t-20 135.5zM1053 371q0 -98 24.5 -163t67.5 -65q34 0 45 15q37 58 37 164q0 98 -24.5 162.5t-67.5 64.5q-32 0 -45 -17q-37 -58 -37 -161z" />
<glyph unicode="&#x26;" horiz-adv-x="1558" d="M33 324q0 117 71 223.5t220 187.5q-88 154 -88 262q0 80 26 148t69.5 116t101.5 82t122 50t131 16q130 0 217.5 -75t87.5 -201q0 -271 -311 -420q119 -157 299 -326q72 86 112 162.5t48 159.5q-60 24 -142 34q0 87 17 140q34 0 126 -3t154 -3q88 0 217 6q13 -41 13 -125 q-60 -37 -154 -51q-67 -228 -266 -433q134 -108 213 -108q78 0 168 33q55 -37 61 -113q-64 -45 -162 -75.5t-190 -30.5q-124 0 -295 116q-169 -133 -430 -133q-83 0 -159.5 22.5t-139 66t-100 114t-37.5 158.5zM336 410q0 -102 78.5 -166t183.5 -64q88 0 162 27 q-194 173 -346 387q-78 -84 -78 -184zM518 1053q0 -88 76 -217q66 55 96.5 108t30.5 92q0 65 -29.5 109.5t-73.5 44.5q-23 0 -47.5 -7t-31.5 -16q-21 -31 -21 -114z" />
<glyph unicode="'" horiz-adv-x="430" d="M68 1569q102 33 251 30l25 -24q-11 -306 -45 -520q-78 -36 -172 -23q-53 305 -59 537z" />
<glyph unicode="(" horiz-adv-x="755" d="M115 664q0 275 101 550t325 572q109 -20 155 -96q-148 -280 -209 -530.5t-61 -520.5q0 -509 270 -1014q-64 -73 -161 -88q-221 296 -320.5 572.5t-99.5 554.5z" />
<glyph unicode=")" horiz-adv-x="755" d="M59 -367q149 281 210 531t61 518q0 509 -271 1016q64 72 162 88q221 -296 320.5 -572.5t99.5 -554.5q0 -275 -101 -550t-325 -572q-110 20 -156 96z" />
<glyph unicode="*" horiz-adv-x="825" d="M43 1198q-8 104 59 211q65 -27 145.5 -75t121.5 -83q-113 160 -154 271q93 63 211 57q9 -73 8 -165t-10 -144q3 5 18 33t24 45t26.5 47t31 51.5t30.5 46.5t32 43q95 -48 151 -156q-54 -42 -135.5 -88.5t-130.5 -64.5q210 13 311 -4q8 -104 -59 -211q-65 27 -145 75 t-121 82q112 -158 153 -270q-93 -63 -211 -57q-9 73 -8 165t10 144q-3 -5 -22 -40.5t-31 -57.5t-32 -56t-39 -62t-37 -50q-97 49 -152 155q55 43 136.5 89.5t129.5 64.5q-210 -13 -311 4z" />
<glyph unicode="+" horiz-adv-x="1126" d="M122 542.5q0 45.5 21 100.5h318v324q101 35 201 0v-324h325q35 -100 0 -201h-325v-319q-55 -21 -100.5 -21t-100.5 21v319h-318q-21 55 -21 100.5z" />
<glyph unicode="," horiz-adv-x="622" d="M74 -219q58 62 99.5 137.5t41.5 138.5q0 91 -94 127q7 73 63.5 119.5t132.5 46.5q88 0 142.5 -51.5t54.5 -136.5q0 -124 -114.5 -260t-256.5 -197q-29 9 -48.5 30t-20.5 46z" />
<glyph unicode="-" horiz-adv-x="782" d="M131 410q-18 100 4 206l510 11q24 -108 4 -209z" />
<glyph unicode="." horiz-adv-x="622" d="M115 166q0 79 56 131.5t140 52.5t140.5 -52.5t56.5 -131.5q0 -82 -57 -138.5t-140 -56.5t-139.5 56.5t-56.5 138.5z" />
<glyph unicode="/" horiz-adv-x="909" d="M8 -129l635 1571q131 -21 219 -88l-631 -1565q-124 17 -223 82z" />
<glyph unicode="0" horiz-adv-x="1218" d="M82 539q0 94 31.5 185.5t92 170.5t162 127.5t228.5 48.5q102 0 190.5 -33.5t151.5 -89.5t109 -129.5t68 -153.5t22 -161q0 -74 -19 -148t-60.5 -144t-100.5 -123t-145.5 -85.5t-188.5 -32.5t-190.5 33.5t-151.5 90t-109 129.5t-68 153.5t-22 161.5zM383 506 q0 -91 24.5 -168.5t59.5 -122.5q14 -19 50.5 -32t70.5 -13q53 0 96 21.5t71 56.5t46.5 83t26.5 99t8 107q0 91 -23.5 168t-58.5 122q-14 20 -51 32.5t-72 12.5q-65 0 -115 -31.5t-78 -85t-41.5 -116.5t-13.5 -133z" />
<glyph unicode="1" horiz-adv-x="864" d="M68 963q241 87 532 102l25 -25q-9 -307 -9 -581v-127q0 -69 7 -158q118 -10 202 -37q0 -99 -16 -139q-136 4 -340 4q-91 0 -208 -2t-155 -2q-18 41 -18 139q119 9 225 39q9 59 9 115v538h-236q-18 58 -18 134z" />
<glyph unicode="2" horiz-adv-x="1030" d="M74 946q82 53 191.5 89t211.5 36q180 0 287.5 -82t107.5 -219q0 -136 -110 -268.5t-291 -247.5l-96 -61v-9h340q32 80 59 203q89 11 182 -8q5 -136 -16 -356l-25 -25q-125 4 -477 4h-303q-47 61 -51 205q92 55 173 115t154.5 127.5t116.5 137.5t43 130q0 68 -47.5 111.5 t-128.5 43.5q-46 0 -90 -14q-12 -76 -12 -196q-91 -29 -168 -15q-51 151 -51 299z" />
<glyph unicode="3" horiz-adv-x="956" d="M31 946q82 53 193 89t218 36q188 0 296 -84.5t108 -226.5q0 -91 -62.5 -169t-171.5 -132q141 -32 213 -106.5t72 -182.5t-49 -201t-147 -167.5t-258.5 -121t-368.5 -57.5q-38 54 -27 135q150 26 271 74t198.5 120t77.5 154q0 90 -63.5 143.5t-157.5 53.5q-40 0 -86 -4 l-25 25q-14 91 27 180q106 2 182 63t76 146q0 71 -52 115t-137 44q-49 0 -96 -14q-12 -76 -12 -196q-91 -29 -168 -15q-51 151 -51 299z" />
<glyph unicode="4" horiz-adv-x="1089" d="M39 256l500 750q142 49 286 49l25 -25v-768l219 -16q0 -104 -16 -183h-203v-385q-116 -36 -252 -36l-25 24v397h-483q-51 66 -51 193zM276 260h297v541h-8l-55 -195z" />
<glyph unicode="5" horiz-adv-x="919" d="M25 -242q150 28 271 81t198 131t77 167q0 114 -68 184t-177 70q-112 0 -203 -24l-25 24v625l25 24h194q312 0 474 4l24 -24q-3 -98 -20 -176h-414v-264q37 4 111 4q73 0 141.5 -27t122 -75.5t86 -122.5t32.5 -160q0 -114 -49 -212t-147 -176t-258 -127.5t-369 -60.5 q-38 53 -26 135z" />
<glyph unicode="6" horiz-adv-x="1130" d="M88 528q0 101 22.5 197.5t80.5 199t146.5 186t232 151t325.5 100.5q46 -43 49 -129q-260 -94 -397 -220t-158 -321h10q65 80 140 124t151 44q165 0 274 -109.5t109 -277.5q0 -95 -29.5 -177t-80 -141t-117 -101t-140 -62.5t-149.5 -20.5q-84 0 -156 27t-121.5 72.5 t-88 102.5t-60 120.5t-32.5 122.5t-11 112zM395 502q20 -143 77 -237.5t136 -94.5q34 0 68 10.5t47 22.5q27 25 43 80t16 125q0 110 -48 177.5t-116 67.5q-120 0 -223 -151z" />
<glyph unicode="7" horiz-adv-x="1005" d="M37 1020l24 24q127 -4 482 -4h362q44 -54 62 -174q-299 -604 -539 -1245q-190 3 -256 117l-4 33l559 1073h-465q-26 -152 -31 -264q-31 -12 -83.5 -12t-84.5 12q-34 187 -26 440z" />
<glyph unicode="8" horiz-adv-x="1132" d="M80 301q0 205 262 338v8q-227 125 -227 289q0 107 71 206t176.5 156.5t208.5 57.5q195 0 306.5 -84t111.5 -201q0 -96 -61.5 -174t-165.5 -127v-10q291 -142 291 -332q0 -84 -40.5 -167t-110.5 -149t-175.5 -107.5t-224.5 -41.5q-198 0 -310 86.5t-112 251.5zM352 348 q0 -51 18.5 -89t49.5 -58t65.5 -29.5t73.5 -9.5q49 0 95.5 13.5t60.5 27.5q45 47 45 131q0 65 -63.5 120t-180.5 111q-164 -90 -164 -217zM408 1026q0 -55 47.5 -99t142.5 -91q119 81 119 174q0 55 -49.5 101t-120.5 46q-30 0 -62.5 -9.5t-40.5 -17.5q-36 -36 -36 -104z" />
<glyph unicode="9" horiz-adv-x="1130" d="M57 569q0 95 29.5 177t80 141t117 101t140 62.5t149.5 20.5q84 0 156 -28t121.5 -75.5t88 -106.5t60 -125t32.5 -126.5t11 -115.5q0 -73 -11.5 -145t-38.5 -149.5t-68.5 -147.5t-106 -137.5t-145.5 -122t-192.5 -98t-243.5 -67.5q-47 44 -50 129q268 101 406 238.5 t149 355.5h-8q-139 -168 -293 -168q-165 0 -274 109.5t-109 277.5zM348 635q0 -111 48 -178.5t116 -67.5q117 0 221 150q-23 144 -79.5 238.5t-131.5 94.5q-34 0 -67.5 -10t-46.5 -22q-27 -25 -43.5 -80.5t-16.5 -124.5z" />
<glyph unicode=":" horiz-adv-x="622" d="M119 154q0 72 56.5 122t135.5 50q80 0 136.5 -50t56.5 -122q0 -75 -57 -129t-136 -54q-78 0 -135 54t-57 129zM119 819q0 72 56.5 122t135.5 50q80 0 136.5 -50t56.5 -122q0 -75 -56.5 -128.5t-136.5 -53.5q-78 0 -135 53.5t-57 128.5z" />
<glyph unicode=";" horiz-adv-x="622" d="M61 -219q59 62 100.5 137.5t41.5 138.5q0 95 -94 127q7 72 62 119t124 47q95 0 151 -51.5t56 -136.5q0 -123 -116 -258.5t-259 -196.5q-29 9 -47 28.5t-19 45.5zM119 819q0 72 56.5 122t135.5 50q80 0 136.5 -50t56.5 -122q0 -75 -56.5 -128.5t-136.5 -53.5 q-78 0 -135 53.5t-57 128.5z" />
<glyph unicode="&#x3c;" horiz-adv-x="1126" d="M90 475q-23 85 0 178l873 412q74 -65 86 -178l-691 -322l689 -319q-3 -100 -86 -183z" />
<glyph unicode="=" horiz-adv-x="1126" d="M122 352.5q0 45.5 21 100.5h844q35 -100 0 -201h-844q-21 55 -21 100.5zM122 733.5q0 45.5 21 100.5h844q35 -101 0 -201h-844q-21 55 -21 100.5z" />
<glyph unicode="&#x3e;" horiz-adv-x="1126" d="M74 242l688 321l-686 320q3 99 86 182l870 -412q23 -85 0 -178l-872 -412q-74 65 -86 179z" />
<glyph unicode="?" horiz-adv-x="880" d="M53 1288q81 50 183 82.5t208 32.5q209 0 315.5 -98t106.5 -258q0 -76 -29.5 -143t-76 -116.5t-93.5 -89.5t-91.5 -80t-61.5 -71q-12 -23 -12 -131q-41 -22 -111.5 -29.5t-130.5 2.5q-35 107 -35 193q0 39 34 79.5t82 76t96 72t82 79t34 84.5q0 91 -55.5 160t-137.5 69 q-29 0 -59 -6q-25 -111 -33 -213q-94 -26 -178 -10q-37 154 -37 315zM221 129q0 62 48 103.5t118 41.5q68 0 115 -42t47 -103q0 -63 -47.5 -110.5t-114.5 -47.5q-69 0 -117.5 47.5t-48.5 110.5z" />
<glyph unicode="@" horiz-adv-x="1966" d="M70 393q0 133 33.5 257t96 229.5t155 193t206 149t253 95t292.5 33.5q146 0 275 -40t224.5 -110.5t164.5 -165t104 -206t35 -230.5q0 -281 -170.5 -454t-440.5 -173q-43 0 -82 40.5t-65 107.5q-138 -148 -279 -148q-112 0 -191.5 68t-117 179.5t-37.5 254.5 q0 151 61.5 276t163 195t218.5 70q120 0 238.5 -34.5t209.5 -92.5v-570q0 -49 4 -139q61 0 120.5 29t80.5 65q53 89 53 244q0 186 -79.5 330.5t-228.5 226.5t-345 82q-124 0 -265 -47.5t-188 -91.5q-233 -219 -233 -545q0 -191 77 -345t212 -240.5t301 -86.5q97 0 164 12 t165 44q59 -52 50 -129q-195 -125 -463 -125q-156 0 -297 58t-246 160.5t-167 252t-62 321.5zM817 528q0 -137 41 -238.5t105 -101.5q56 0 159 103v489q-65 35 -125 35q-88 0 -108 -27q-30 -38 -51 -112t-21 -148z" />
<glyph unicode="A" horiz-adv-x="1468" d="M10 141q67 7 164 39l420 1168q122 34 276 34l439 -1202q74 -8 151 -39v-25q0 -62 -12 -118q-76 4 -307 4q-68 0 -178.5 -2t-153.5 -2q-16 63 -16 143l194 35l-78 215q-173 10 -305 10h-137l-78 -225l182 -35q1 -13 1 -25q0 -62 -13 -118q-84 4 -287 4q-56 0 -136.5 -2 t-108.5 -2q-17 67 -17 143zM526 575h318l-119 330l-4 211h-8z" />
<glyph unicode="B" horiz-adv-x="1282" d="M33 141q75 8 178 39q10 49 10 125v604q0 156 -10 283q-103 31 -178 39q0 80 16 143q39 0 145.5 -2t176.5 -2q88 0 222.5 5t182.5 5q160 0 265.5 -91t105.5 -228q0 -87 -48.5 -166t-152.5 -133q146 -38 225.5 -125.5t79.5 -192.5q0 -82 -41.5 -163t-113 -145t-177 -104 t-223.5 -40q-48 0 -151.5 5t-173.5 5t-176.5 -2t-145.5 -2q-16 63 -16 143zM524 195h94q205 0 246 32q72 59 72 181q0 104 -78.5 158.5t-230.5 54.5h-103v-426zM524 809h64q127 0 184 53t57 129q0 80 -46.5 135.5t-116.5 55.5q-7 0 -142 -6v-367z" />
<glyph unicode="C" horiz-adv-x="1228" d="M55 662q0 106 28.5 210.5t87.5 200.5t142 169.5t200.5 117t254.5 43.5q236 0 397 -64q0 -252 -47 -413q-29 -5 -59 -5q-57 0 -115 19q-5 92 -26 223q-73 13 -191 13q-71 0 -132 -13.5t-83 -29.5q-13 -9 -33.5 -39.5t-45 -79t-41.5 -121.5t-17 -150q0 -118 24 -216 t72.5 -172.5t126.5 -116t180 -41.5q94 0 168 18q19 144 27 248q61 19 122 19q30 0 60 -5q31 -163 31 -428q-219 -80 -455 -80q-133 0 -244.5 35.5t-190.5 98.5t-134 150t-81 190t-26 219z" />
<glyph unicode="D" horiz-adv-x="1427" d="M33 141q75 8 178 39q10 49 10 125v604q0 156 -10 283q-103 31 -178 39q0 80 16 143q39 0 145.5 -2t176.5 -2q67 0 214.5 5t217.5 5q135 0 243.5 -50.5t179 -141t108.5 -214t38 -269.5q0 -107 -30.5 -211.5t-89.5 -194.5t-138 -159t-183 -108.5t-218 -39.5q-47 0 -158.5 5 t-183.5 5q-70 0 -176.5 -2t-145.5 -2q-16 63 -16 143zM524 195h172q65 0 135 15.5t95 35.5q127 105 127 381q0 104 -23 201t-66 177t-113 128.5t-157 48.5q-60 0 -170 -4v-983z" />
<glyph unicode="E" horiz-adv-x="1208" d="M33 141q75 8 178 39q10 49 10 125v604q0 153 -10 283q-103 31 -178 39q0 80 16 143q39 0 145.5 -2t176.5 -2h252q354 0 481 4l24 -26q1 -40 1 -77q0 -199 -27 -323q-52 -8 -98 -8t-84 8q-9 112 -31 226h-365v-381l365 12l24 -25q-4 -120 -22 -180l-367 10v-411h391 q41 113 74 252q25 3 51 3q61 0 127 -18q0 -174 -22 -411l-25 -27q-127 4 -481 4h-264q-70 0 -178.5 -2t-147.5 -2q-16 63 -16 143z" />
<glyph unicode="F" horiz-adv-x="1142" d="M33 141q75 8 178 39q10 49 10 125v604q0 156 -10 283q-103 31 -178 39q0 80 16 143q39 0 146.5 -2t177.5 -2h252q354 0 481 4l24 -26q1 -42 1 -82q0 -210 -27 -342q-52 -8 -98 -8t-84 8q-9 123 -31 250h-367v-410l371 12l25 -24q-4 -117 -23 -181l-373 11v-232 q0 -99 8 -170q115 -8 232 -39v-23q0 -65 -14 -120q-96 4 -379 4q-70 0 -176.5 -2t-145.5 -2q-16 63 -16 143z" />
<glyph unicode="G" horiz-adv-x="1411" d="M55 662q0 106 28.5 210.5t88.5 200.5t144.5 169.5t205.5 117t262 43.5q235 0 406 -62q0 -234 -47 -395q-30 -5 -60 -5q-60 0 -122 20q-6 118 -25 210q-80 13 -174 13q-93 0 -157.5 -13t-86.5 -32q-14 -11 -35.5 -40.5t-47.5 -78t-44 -123t-18 -154.5q0 -122 25 -223.5 t74.5 -178.5t128.5 -120t181 -43q70 0 146 6v17q0 155 -10 282q-123 32 -209 39q0 84 18 144q37 0 143 -2t195 -2q246 0 301 4q12 -57 12 -119v-25q-77 -31 -151 -39q-8 -101 -8 -282v-119q-301 -113 -551 -113q-119 0 -219.5 35.5t-172.5 98.5t-122 149.5t-74.5 190 t-24.5 219.5z" />
<glyph unicode="H" horiz-adv-x="1593" d="M33 141q75 8 178 39q10 49 10 125v604q0 156 -10 283q-103 31 -178 39q0 80 16 143q39 0 145.5 -2t176.5 -2q235 0 315 4q12 -56 12 -118v-25q-84 -31 -166 -39q-8 -101 -8 -283v-100h549v100q0 156 -10 283q-103 31 -178 39q0 80 16 143q39 0 145.5 -2t176.5 -2 q235 0 315 4q12 -56 12 -118v-25q-84 -31 -166 -39q-8 -101 -8 -283v-559q0 -99 8 -170q82 -8 166 -39v-25q0 -62 -12 -118q-80 4 -315 4q-70 0 -176.5 -2t-145.5 -2q-16 63 -16 143q75 8 178 39q10 49 10 125v297q-229 14 -387 14h-162v-266q0 -99 8 -170q82 -8 166 -39 v-25q0 -62 -12 -118q-80 4 -315 4q-70 0 -176.5 -2t-145.5 -2q-16 63 -16 143z" />
<glyph unicode="I" horiz-adv-x="741" d="M33 141q75 8 178 39q10 49 10 125v604q0 156 -10 283q-103 31 -178 39q0 80 16 143q39 0 145.5 -2t176.5 -2q235 0 315 4q12 -56 12 -118v-25q-84 -31 -166 -39q-8 -101 -8 -283v-559q0 -99 8 -170q82 -8 166 -39v-25q0 -62 -12 -118q-80 4 -315 4q-70 0 -176.5 -2 t-145.5 -2q-16 63 -16 143z" />
<glyph unicode="J" horiz-adv-x="700" d="M-123 -299q159 63 241.5 161.5t82.5 248.5v798q0 144 -11 283q-103 31 -178 39q0 76 17 143q39 0 146 -2t177 -2q234 0 314 4q12 -56 12 -118v-25q-84 -31 -166 -39q-8 -101 -8 -283v-821q0 -165 -73.5 -281.5t-203.5 -176.5t-311 -70q-41 52 -41 113q0 14 2 28z" />
<glyph unicode="K" horiz-adv-x="1458" d="M33 141q75 8 178 39q10 49 10 125v604q0 156 -10 283q-103 31 -178 39q0 80 16 143q39 0 145.5 -2t176.5 -2q235 0 315 4q12 -56 12 -118v-25q-84 -31 -166 -39q-8 -101 -8 -283v-182l439 469l-160 35q0 80 16 143q43 0 140.5 -2t154.5 -2q205 0 275 4q13 -56 13 -118 q0 -12 -1 -25q-81 -31 -156 -39l-366 -377l409 -637q75 -8 152 -39v-23q0 -60 -13 -120q-86 4 -266 4h-135l-362 594l-140 -145v-99q0 -99 8 -170q82 -8 166 -39v-25q0 -62 -12 -118q-80 4 -315 4q-70 0 -176.5 -2t-145.5 -2q-16 63 -16 143z" />
<glyph unicode="L" horiz-adv-x="1181" d="M33 141q75 8 178 39q10 49 10 125v604q0 156 -10 283q-103 31 -178 39q0 80 16 143q39 0 145.5 -2t176.5 -2q285 0 381 4q12 -56 12 -118v-25q-113 -31 -232 -39q-8 -101 -8 -283v-710h391q44 150 74 301q26 4 53 4q60 0 129 -19q0 -235 -22 -460l-25 -27q-127 4 -481 4 h-272q-70 0 -176.5 -2t-145.5 -2q-16 63 -16 143z" />
<glyph unicode="M" horiz-adv-x="1900" d="M10 141q75 8 178 39l103 1012q-103 31 -178 39q0 80 16 143q35 0 129.5 -2t157.5 -2q202 0 319 -6l193 -756l8 -225h8l242 981q117 6 287 6q229 0 305 4q12 -56 12 -118v-25q-84 -31 -166 -39l98 -1012q82 -8 166 -39v-25q0 -62 -12 -118q-78 4 -305 4q-67 0 -169 -2 t-140 -2q-17 67 -17 143l176 39l-75 764l16 225h-8l-305 -1144q-115 -35 -273 -35l-241 954l-19 225h-8l-98 -987l165 -41q1 -13 1 -25q0 -62 -13 -118q-80 4 -297 4q-38 0 -119 -2t-120 -2q-17 67 -17 143z" />
<glyph unicode="N" horiz-adv-x="1531" d="M33 141q75 8 178 39q10 49 10 125v604q0 156 -10 283q-103 31 -178 39q0 80 16 143q42 0 142 -2t155 -2q157 0 227 -8l484 -852l51 -225h8v624q0 156 -10 283q-103 31 -178 39q0 80 16 143q43 0 139 -2t144 -2q192 0 270 4q13 -56 13 -118q0 -12 -1 -25q-84 -31 -166 -39 q-8 -101 -8 -283v-884q-64 -15 -163 -25t-177 -10l-499 884l-47 226h-9v-750q0 -90 9 -170q80 -8 165 -39v-25q0 -62 -12 -118q-80 4 -276 4q-47 0 -141 -2t-136 -2q-16 63 -16 143z" />
<glyph unicode="O" horiz-adv-x="1421" d="M55 662q0 107 29.5 213.5t88.5 202.5t139 170t189 117.5t230 43.5q150 0 271.5 -53.5t200.5 -148t121 -221.5t42 -275q0 -107 -29.5 -214.5t-88.5 -203t-139 -169.5t-188.5 -117.5t-230.5 -43.5q-152 0 -273.5 54t-200 149t-120 221.5t-41.5 274.5zM375 743 q0 -114 21.5 -211t65 -175t117 -122.5t169.5 -44.5q56 0 112 19.5t72 40.5q48 58 81.5 154.5t33.5 224.5q0 114 -21.5 211t-65 175t-117 122.5t-169.5 44.5q-56 0 -112.5 -19.5t-72.5 -40.5q-48 -57 -81 -154t-33 -225z" />
<glyph unicode="P" horiz-adv-x="1230" d="M33 141q75 8 178 39q10 49 10 125v604q0 156 -10 283q-103 31 -178 39q0 80 16 143q39 0 145.5 -2t176.5 -2t207.5 5t191.5 5q104 0 189 -31.5t138.5 -85.5t82 -123t28.5 -147q0 -130 -77.5 -248t-210 -190t-283.5 -72q-43 0 -113 4v-137q0 -99 8 -170q115 -8 232 -39 v-23q0 -65 -14 -120q-96 4 -379 4q-70 0 -176.5 -2t-145.5 -2q-16 63 -16 143zM524 692q29 -2 90 -2q66 0 128.5 15.5t72.5 25.5q74 65 74 217q0 92 -54.5 163t-150.5 71q-54 0 -160 -4v-486z" />
<glyph unicode="Q" horiz-adv-x="1421" d="M55 662q0 107 29.5 213.5t88.5 202.5t139 170t189 117.5t230 43.5q150 0 271.5 -53.5t200.5 -148t121 -221.5t42 -275q0 -154 -59.5 -302.5t-177 -264.5t-269.5 -158q137 -148 320 -148q70 0 127 8q30 -46 30 -108q0 -23 -4 -49q-54 -24 -157 -42t-232 -18 q-79 0 -177 89.5t-226 261.5q-155 31 -266 128.5t-165.5 239t-54.5 314.5zM375 743q0 -114 21.5 -211t65 -175t117 -122.5t169.5 -44.5q56 0 112 19.5t72 40.5q48 58 81.5 154.5t33.5 224.5q0 114 -21.5 211t-65 175t-117 122.5t-169.5 44.5q-56 0 -112.5 -19.5t-72.5 -40.5 q-48 -57 -81 -154t-33 -225z" />
<glyph unicode="R" horiz-adv-x="1368" d="M33 141q75 8 178 39q10 49 10 125v604q0 156 -10 283q-103 31 -178 39q0 80 16 143q39 0 145.5 -2t176.5 -2t206.5 5t190.5 5q204 0 321 -99.5t117 -248.5q0 -112 -68 -213.5t-180 -171.5l232 -469q82 -8 166 -39v-23q0 -60 -13 -120q-90 4 -274 4h-141l-258 557h-21 q-63 0 -125 6v-213q0 -99 8 -170q82 -8 166 -39v-25q0 -62 -12 -118q-80 4 -315 4q-70 0 -176.5 -2t-145.5 -2q-16 63 -16 143zM524 762q29 -2 90 -2q45 0 90.5 7.5t71 15t31.5 12.5q80 60 80 186q0 78 -54 139.5t-149 61.5q-107 0 -160 -4v-416z" />
<glyph unicode="S" horiz-adv-x="1105" d="M43 70q6 218 49 393q33 9 70 9q53 0 112 -19q7 -123 23 -240q92 -39 219 -39q51 0 99.5 14.5t60.5 24.5q51 45 51 147q0 61 -53.5 107.5t-157.5 87.5l-158 63q-59 24 -105 52.5t-90 71.5t-68.5 105.5t-24.5 139.5q0 107 44 190t117 131t159 71.5t179 23.5 q102 0 222 -22.5t210 -59.5q-3 -191 -32 -348q-45 -12 -84 -12q-53 0 -94 22q-5 91 -25 193q-77 26 -203 26q-38 0 -81 -8.5t-52 -15.5q-47 -37 -47 -117q0 -27 14 -52t30 -41t50.5 -36t51.5 -28.5t57 -26.5l168 -76q60 -26 107 -56t91 -73t68 -101.5t24 -128.5 q0 -202 -138 -337.5t-367 -135.5q-143 0 -277 28t-219 73z" />
<glyph unicode="T" horiz-adv-x="1329" d="M23 1350l24 24q127 -4 481 -4h273q354 0 481 4l25 -24q1 -48 1 -93q0 -199 -28 -358q-52 -8 -98 -8.5t-84 8.5q-5 115 -31 275h-252v-824q0 -99 8 -170q115 -8 232 -39v-22q0 -64 -15 -121q-96 4 -378 4q-83 0 -210 -2t-173 -2q-21 62 -21 143q100 7 244 39q10 49 10 125 v869h-250q-26 -160 -31 -275q-38 -8 -83.5 -8.5t-98.5 8.5q-28 154 -28 354q0 47 2 97z" />
<glyph unicode="U" horiz-adv-x="1458" d="M6 1231q0 76 17 143q39 0 145 -2t176 -2q235 0 315 4q13 -60 13 -120v-23q-84 -31 -166 -39q-8 -101 -8 -283v-331q0 -208 70 -308t212 -100q62 0 117 21.5t76 46.5q14 18 27.5 44.5t27.5 89.5t14 140v397q0 156 -10 283q-103 31 -178 39q0 80 16 143q43 0 139 -2t146 -2 q199 0 279 4q12 -56 12 -118v-25q-84 -31 -166 -39q-8 -101 -8 -283v-342q0 -103 -19 -191.5t-62 -165.5t-108 -131t-162.5 -85t-220.5 -31q-250 0 -377.5 122.5t-127.5 393.5v430q0 144 -11 283q-103 31 -178 39z" />
<glyph unicode="V" horiz-adv-x="1468" d="M6 1231q0 76 17 143q39 0 145 -2t176 -2q238 0 318 4q12 -56 12 -118v-25l-182 -35l262 -729l4 -211h8l324 940l-195 35q0 73 12 143q34 0 126 -2t151 -2q194 0 262 4q11 -58 11 -116q0 -13 -1 -27q-77 -31 -151 -39l-420 -1167q-126 -35 -277 -35l-438 1202 q-97 32 -164 39z" />
<glyph unicode="W" horiz-adv-x="2043" d="M6 1231q0 76 17 143q41 0 146.5 -2t172.5 -2q235 0 313 4q13 -60 13 -120v-23l-183 -35l179 -713l4 -225h8l256 1090q119 34 301 34l221 -893v-225h8l213 938l-194 33q0 71 12 139q33 0 122 -2t148 -2q192 0 258 4q12 -63 12 -119q0 -12 -1 -24q-77 -31 -152 -39 l-293 -1167q-54 -15 -142.5 -25t-164.5 -10l-209 780l-16 227h-8l-240 -972q-52 -15 -143.5 -25t-169.5 -10l-324 1202q-97 32 -164 39z" />
<glyph unicode="X" horiz-adv-x="1419" d="M6 141q75 8 178 39l342 508l-348 504q-97 32 -164 39q0 76 17 143q36 0 144.5 -2t184.5 -2q252 0 340 4q13 -60 13 -120v-23l-168 -35l229 -332l211 332l-154 35q0 67 13 143q34 0 122.5 -2t141.5 -2q191 0 254 4q11 -58 11 -116q0 -13 -1 -27q-77 -31 -151 -39 l-332 -492l362 -520q75 -8 156 -39q1 -13 1 -25q0 -62 -13 -118q-84 4 -336 4q-74 0 -187 -2t-153 -2q-17 67 -17 143l181 35l-240 344l-223 -344l147 -35q1 -13 1 -25q0 -62 -13 -118q-80 4 -279 4q-55 0 -138.5 -2t-114.5 -2q-17 67 -17 143z" />
<glyph unicode="Y" horiz-adv-x="1380" d="M6 1227q0 78 17 147q43 0 155.5 -2t186.5 -2q241 0 325 4q12 -56 12 -118v-25l-172 -35l234 -432l221 432l-184 35q0 73 12 143q33 0 125.5 -2t153.5 -2q200 0 266 4q11 -58 11 -116q0 -14 -1 -27q-77 -31 -151 -39l-375 -688v-154q0 -99 8 -170q114 -8 231 -39v-23 q0 -66 -14 -120q-96 4 -379 4q-83 0 -210 -2t-173 -2q-20 59 -20 143q98 7 243 39q11 54 11 125v203l-369 680q-97 32 -164 39z" />
<glyph unicode="Z" horiz-adv-x="1208" d="M41 182l670 992h-392q-23 -139 -30 -226q-50 -10 -95.5 -10t-87.5 10q-27 132 -27 327q0 36 1 75l24 24q127 -4 482 -4h452q63 -82 74 -180l-672 -991h459q41 113 74 252q25 3 51 3q61 0 127 -18q0 -166 -23 -413l-24 -25q-127 4 -481 4h-551q-32 78 -32 155q0 13 1 25z " />
<glyph unicode="[" horiz-adv-x="806" d="M209 -403v2121l24 25q354 -6 533 -6q15 -93 0 -185q-116 -17 -289 -20v-1749q165 -3 289 -21q12 -92 0 -184q-167 0 -533 -6z" />
<glyph unicode="\" horiz-adv-x="909" d="M47 1354q88 67 219 88l635 -1571q-99 -65 -221 -82z" />
<glyph unicode="]" horiz-adv-x="806" d="M41 -238q124 18 289 21v1749q-173 3 -289 20q-15 92 0 185q178 0 532 6l25 -25v-2121l-25 -25q-366 6 -532 6q-12 92 0 184z" />
<glyph unicode="^" horiz-adv-x="1040" d="M113 874l325 496q82 14 154 14l336 -512q-53 -78 -146 -110l-268 344l-268 -344q-92 31 -133 112z" />
<glyph unicode="_" horiz-adv-x="1024" d="M0 -86h1024v-180h-1024v180z" />
<glyph unicode="`" d="M104 1468l15 50q109 62 264 59l203 -385q-35 -83 -129 -98z" />
<glyph unicode="a" horiz-adv-x="1323" d="M29 135q53 4 147 31l354 856q106 29 258 29l371 -885q72 -9 137 -31q1 -13 1 -26q0 -55 -11 -111q-70 4 -276 4q-63 0 -162.5 -2t-136.5 -2q-15 56 -15 137l162 27l-51 114q-154 7 -262 7h-121l-49 -121l151 -27q1 -13 1 -26q0 -55 -11 -111q-78 4 -260 4 q-52 0 -122.5 -2t-90.5 -2q-14 63 -14 137zM481 424h262l-92 209l-2 182h-8z" />
<glyph unicode="b" horiz-adv-x="1159" d="M41 135q57 5 154 31q8 21 8 61v443q0 134 -8 207q-81 22 -154 28q0 76 14 139q32 0 128.5 -2t162.5 -2q76 0 195 4t161 5q139 0 233.5 -69t94.5 -165q0 -158 -174 -237q130 -26 197 -91t67 -159q0 -100 -65 -177t-176.5 -117t-251.5 -40q-42 0 -130.5 4t-150.5 4 q-66 0 -162.5 -2t-128.5 -2q-14 63 -14 137zM489 170h62q189 0 223 23q20 10 33.5 44.5t13.5 73.5q0 77 -61 112.5t-185 35.5h-86v-289zM489 621h56q184 0 184 141q0 46 -37 79t-92 33q-17 0 -54.5 -1t-56.5 -1v-251z" />
<glyph unicode="c" horiz-adv-x="1095" d="M59 502q0 80 24.5 159t76.5 152t124.5 129t176 89.5t223.5 33.5q208 0 346 -51q0 -219 -41 -340q-27 -5 -55 -5q-52 0 -109 17q-5 75 -22 168q-62 10 -156 10q-97 0 -172 -24q-5 -2 -16.5 -14t-28.5 -37t-32 -57t-25.5 -77.5t-10.5 -93.5q0 -175 83.5 -279t244.5 -104 q73 0 139 15q3 24 11.5 87.5t11.5 98.5q57 17 113 17q30 0 59 -5q27 -135 27 -350q-183 -64 -400 -64q-145 0 -259.5 41t-186 113t-109 166t-37.5 205z" />
<glyph unicode="d" horiz-adv-x="1282" d="M41 135q57 5 154 31q8 27 8 90v414q0 134 -8 207q-81 22 -154 28q0 76 14 139q32 0 128.5 -2t162.5 -2q55 0 187.5 4.5t199.5 4.5q159 0 271 -67.5t165.5 -182t53.5 -264.5q0 -102 -43.5 -199.5t-118 -173t-183.5 -122t-231 -46.5q-43 0 -141 4t-160 4q-66 0 -162.5 -2 t-128.5 -2q-14 63 -14 137zM489 170h146q53 0 109.5 10.5t76.5 24.5q99 75 99 274q0 100 -30 187t-98 147.5t-163 60.5t-140 -2v-702z" />
<glyph unicode="e" horiz-adv-x="1081" d="M41 135q57 5 154 31q8 27 8 90v414q0 131 -8 207q-81 22 -154 28q0 76 14 139q32 0 128.5 -2t162.5 -2h225q192 0 414 4l25 -24v-35q0 -170 -27 -289q-50 -7 -93.5 -7t-78.5 7q-10 93 -27 172h-295v-260l302 6l24 -24q-4 -94 -20 -141l-306 4v-279h318q35 82 63 193 q21 2 42 2q61 0 126 -17q0 -158 -16 -329l-25 -25q-111 4 -413 4h-234q-65 0 -163.5 -2t-131.5 -2q-14 63 -14 137z" />
<glyph unicode="f" horiz-adv-x="1038" d="M41 135q57 5 154 31q8 21 8 61v443q0 134 -8 207q-81 22 -154 28q0 76 14 139q32 0 129.5 -2t163.5 -2h225q190 0 412 4l25 -24q1 -36 1 -69q0 -170 -26 -273q-51 -7 -94 -7t-78 7q-10 102 -27 190h-297v-280l308 6l24 -25q-4 -95 -18 -141l-314 4v-139q0 -71 9 -127 q110 -9 204 -31q0 -85 -12 -137q-90 4 -346 4q-65 0 -160.5 -2t-128.5 -2q-14 63 -14 137z" />
<glyph unicode="g" horiz-adv-x="1269" d="M59 502q0 80 25 159t77.5 152t126 129t180 89.5t230.5 33.5q204 0 353 -49q0 -199 -41 -320q-27 -5 -55 -5q-55 0 -117 18q-6 84 -21 168q-65 10 -131 10q-150 0 -205 -25q-5 -2 -17.5 -15.5t-31.5 -41t-35.5 -61.5t-28.5 -83t-12 -100q0 -183 88.5 -297t249.5 -114 q74 0 115 2q0 96 -8 206q-120 27 -185 31q0 73 17 137q32 0 128 -2t183 -2q223 0 270 4q12 -60 12 -114q0 -12 -1 -23q-62 -22 -133 -31q-7 -74 -7 -188v-109q-237 -84 -495 -84q-170 0 -292 71.5t-180.5 188.5t-58.5 265z" />
<glyph unicode="h" horiz-adv-x="1423" d="M41 135q57 5 154 31q8 27 8 90v414q0 134 -8 207q-81 22 -154 28q0 76 14 139q32 0 128.5 -2t162.5 -2q211 0 283 4q12 -52 12 -139q-85 -24 -143 -28q-9 -82 -9 -207v-47h445v47q0 134 -8 207q-81 22 -154 28q0 76 14 139q32 0 128.5 -2t162.5 -2q211 0 283 4 q12 -52 12 -139q-85 -24 -143 -28q-8 -73 -8 -207v-379q0 -76 8 -125q73 -8 143 -31q0 -85 -12 -137q-72 4 -283 4q-66 0 -162.5 -2t-128.5 -2q-14 63 -14 137q58 5 154 31q8 27 8 90v186q-240 13 -326 13h-119v-164q0 -69 9 -125q73 -8 143 -31q0 -85 -12 -137 q-72 4 -283 4q-66 0 -162.5 -2t-128.5 -2q-14 63 -14 137z" />
<glyph unicode="i" horiz-adv-x="692" d="M41 135q57 5 154 31q8 27 8 90v414q0 134 -8 207q-81 22 -154 28q0 76 14 139q32 0 128.5 -2t162.5 -2q211 0 283 4q12 -52 12 -139q-85 -24 -143 -28q-9 -82 -9 -207v-379q0 -69 9 -125q73 -8 143 -31q0 -85 -12 -137q-72 4 -283 4q-66 0 -162.5 -2t-128.5 -2 q-14 63 -14 137z" />
<glyph unicode="j" horiz-adv-x="659" d="M-92 -213q132 46 205 121.5t73 179.5v578q0 119 -10 211q-82 23 -151 28q0 76 14 139q33 0 130.5 -2t162.5 -2q208 0 280 4q13 -56 13 -139q-84 -23 -144 -28q-8 -73 -8 -211v-588q0 -191 -141.5 -297t-388.5 -115q-37 45 -37 95q0 13 2 26z" />
<glyph unicode="k" horiz-adv-x="1320" d="M41 135q57 5 154 31q8 27 8 90v414q0 134 -8 207q-81 22 -154 28q0 76 14 139q32 0 128.5 -2t162.5 -2q211 0 283 4q12 -52 12 -139q-85 -24 -143 -28q-9 -82 -9 -207v-121l347 332l-119 24q0 73 14 139q36 0 124 -2t142 -2q181 0 240 4q11 -46 11 -109q0 -14 -1 -30 q-89 -24 -147 -28l-281 -261l326 -450q63 -5 135 -31v-18q0 -56 -10 -119q-78 2 -236 2h-129l-293 428l-123 -115v-22q0 -69 9 -125q73 -8 143 -31q0 -85 -12 -137q-72 4 -283 4q-66 0 -162.5 -2t-128.5 -2q-14 63 -14 137z" />
<glyph unicode="l" horiz-adv-x="1069" d="M41 135q57 5 154 31q8 36 8 90v414q0 134 -8 207q-81 22 -154 28q0 76 14 139q32 0 126.5 -1t158.5 -1q262 0 352 2q10 -54 10 -139q-110 -23 -204 -28q-9 -82 -9 -211v-492h318q41 128 63 238q25 3 52 3q58 0 122 -16q0 -176 -20 -376l-23 -25q-109 4 -413 4h-242 q-66 0 -162.5 -2t-128.5 -2q-14 63 -14 137z" />
<glyph unicode="m" horiz-adv-x="1681" d="M23 135q39 3 153 31l84 711q-78 22 -149 28q0 85 14 137q29 0 112.5 -1t143.5 -1q163 0 303 -4l137 -485l8 -186h9l182 669q105 6 268 6q203 0 273 2q11 -56 11 -111q0 -13 -1 -26q-85 -24 -139 -28l79 -711q80 -9 144 -31q1 -13 1 -26q0 -55 -11 -111q-72 4 -273 4 q-63 0 -153 -2t-121 -2q-15 56 -15 137l150 27l-66 516l19 184h-8l-248 -842q-100 -28 -254 -28l-187 686l-14 184h-8l-84 -700l141 -35q1 -12 1 -24q0 -52 -11 -105q-74 4 -270 4q-33 0 -103.5 -2t-103.5 -2q-14 53 -14 137z" />
<glyph unicode="n" horiz-adv-x="1361" d="M41 135q57 5 154 31q8 27 8 90v414q0 134 -8 207q-81 22 -154 28q0 76 14 139q35 0 125 -2t142 -2q143 0 206 -6l394 -600l43 -186h8v418q0 101 -8 211q-81 22 -154 28q0 86 14 139q37 0 122 -2t128 -2q170 0 240 4q12 -52 12 -139q-85 -24 -143 -28q-6 -55 -6 -211v-646 q-140 -28 -324 -28l-399 608l-39 184h-8v-491q0 -78 8 -127q77 -9 141 -31q1 -13 1 -26q0 -55 -11 -111q-74 4 -246 4q-43 0 -126.5 -2t-119.5 -2q-14 63 -14 137z" />
<glyph unicode="o" horiz-adv-x="1263" d="M59 502q0 81 26 162t77.5 154t121.5 129.5t165 90t202 33.5q173 0 300 -71t190 -190.5t63 -270.5q0 -81 -26 -162.5t-77 -154t-121 -129t-165 -89.5t-201 -33q-175 0 -302.5 71.5t-190 190t-62.5 269.5zM362 561q0 -79 17.5 -147.5t52.5 -123.5t94.5 -86.5t137.5 -31.5 q49 0 93.5 15t55.5 28q88 96 88 264q0 80 -17 148.5t-51.5 124t-93.5 87t-137 31.5q-49 0 -93 -14.5t-58 -26.5q-38 -35 -63.5 -105t-25.5 -163z" />
<glyph unicode="p" horiz-adv-x="1116" d="M41 135q57 5 154 31q8 27 8 90v414q0 134 -8 207q-81 22 -154 28q0 76 14 139q32 0 128.5 -2t162.5 -2q58 0 178 4.5t168 4.5q180 0 285.5 -86t105.5 -209q0 -164 -149 -280t-367 -116q-53 0 -78 2v-67q0 -71 9 -127q110 -9 204 -31q0 -85 -12 -137q-90 4 -346 4 q-65 0 -160.5 -2t-128.5 -2q-14 63 -14 137zM489 539h60q59 0 111 8.5t59 15.5q61 54 61 160q0 61 -45 106t-123 45q-82 0 -123 -2v-333z" />
<glyph unicode="q" horiz-adv-x="1263" d="M59 502q0 81 26 162t77.5 154t121.5 129.5t165 90t202 33.5q173 0 300 -71t190 -190.5t63 -270.5q0 -182 -121.5 -341.5t-320.5 -207.5q106 -92 270 -92q56 0 115 6q27 -41 27 -98q0 -20 -3 -42q-47 -18 -141.5 -31.5t-212.5 -13.5q-126 0 -350 267q-195 40 -301.5 180 t-106.5 336zM362 561q0 -79 17.5 -147.5t52.5 -123.5t94.5 -86.5t137.5 -31.5q49 0 93.5 15t55.5 28q88 96 88 264q0 80 -17 148.5t-51.5 124t-93.5 87t-137 31.5q-49 0 -93 -14.5t-58 -26.5q-38 -35 -63.5 -105t-25.5 -163z" />
<glyph unicode="r" horiz-adv-x="1241" d="M41 135q57 5 154 31q8 21 8 61v455q0 134 -8 207q-85 13 -154 16q0 76 14 139q32 0 128.5 -2t162.5 -2q58 0 177 4.5t167 4.5q188 0 289.5 -73.5t101.5 -187.5q0 -88 -54 -163.5t-146 -128.5l182 -330q67 -5 147 -31q1 -14 1 -28q0 -59 -11 -109q-82 2 -244 2h-137 l-215 416h-22q-62 0 -93 4v-127q0 -71 9 -127q73 -8 143 -31q0 -85 -12 -137q-72 4 -283 4q-66 0 -162.5 -2t-128.5 -2q-14 63 -14 137zM489 590h60q39 0 77.5 4.5t59 9.5t25.5 8q67 51 67 131q0 57 -43.5 100.5t-122.5 43.5q-82 0 -123 -2v-295z" />
<glyph unicode="s" horiz-adv-x="989" d="M45 49q5 188 43 320q30 9 65 9q49 0 107 -18q3 -81 19 -182q76 -26 176 -26q42 0 81.5 9t47.5 15q41 30 41 92q0 40 -44.5 71.5t-138.5 66.5l-137 51q-50 19 -88 41t-73.5 55t-54.5 80t-19 106q0 64 25 118t67.5 91.5t99 64.5t118.5 39.5t126 12.5q90 0 195.5 -18 t183.5 -48q0 -146 -25 -278q-43 -10 -79 -10q-51 0 -89 20q-7 78 -20 141q-64 21 -168 21q-27 0 -60.5 -5t-40.5 -9q-38 -21 -38 -80q0 -10 3 -19.5t10 -18t14 -15.5t20 -15t22 -13t25 -12t25 -11t27 -11t26 -10l143 -58q51 -21 90 -43.5t76.5 -55.5t57.5 -78t20 -99 q0 -155 -121 -259t-322 -104q-122 0 -240 20.5t-196 51.5z" />
<glyph unicode="t" horiz-adv-x="1181" d="M27 1020l24 24q222 -4 412 -4h254q195 0 413 4l25 -24q1 -31 1 -61q0 -189 -28 -308q-38 -8 -81 -8.5t-91 8.5q-3 96 -24 217h-199v-575q0 -71 6 -127q111 -9 205 -31v-24q0 -60 -12 -113q-90 4 -344 4q-78 0 -194 -2t-154 -2q-17 55 -17 137q75 4 213 31q10 36 10 92 v610h-196q-22 -125 -27 -217q-44 -12 -86.5 -12t-85.5 12q-25 125 -25 305q0 31 1 64z" />
<glyph unicode="u" horiz-adv-x="1304" d="M23 905q0 76 14 139q33 0 128.5 -2t160.5 -2q212 0 284 4q12 -50 12 -112q0 -13 -1 -27q-80 -23 -142 -28q-8 -73 -8 -211v-220q0 -149 58.5 -222.5t168.5 -73.5q50 0 94 14t64 31q17 15 35 67.5t18 132.5v271q0 119 -10 211q-82 23 -151 28q0 85 12 139q36 0 121 -2 t131 -2q178 0 252 4q11 -56 11 -113q0 -13 -1 -26q-84 -23 -144 -28q-6 -83 -6 -211v-220q0 -80 -16 -148t-52.5 -129.5t-93 -104.5t-142 -68t-193.5 -25q-217 0 -330 92.5t-113 296.5v306q0 101 -8 211q-82 22 -153 28z" />
<glyph unicode="v" horiz-adv-x="1323" d="M25 905q0 76 14 139q33 0 128.5 -2t160.5 -2q214 0 286 4q12 -50 12 -112q0 -13 -1 -27l-150 -24l207 -482v-172h10l266 654l-163 24q0 64 10 139q25 0 107.5 -2t138.5 -2q172 0 233 4q8 -62 8 -117v-22q-80 -23 -137 -28l-354 -857q-115 -28 -258 -28l-373 885 q-79 23 -145 28z" />
<glyph unicode="w" horiz-adv-x="1814" d="M25 905q0 76 14 139q34 0 129.5 -2t157.5 -2q210 0 282 4q11 -56 11 -113q0 -13 -1 -26l-153 -24l139 -467l2 -185h8l207 793q120 29 287 29l182 -625l-2 -190h8l166 645l-164 24q0 56 11 139q24 0 103.5 -2t135.5 -2q171 0 228 4q10 -54 10 -139q-80 -24 -135 -28 l-242 -857q-132 -28 -285 -28l-174 526l-14 180h-8l-195 -678q-126 -28 -291 -28l-272 885q-79 23 -145 28z" />
<glyph unicode="x" horiz-adv-x="1277" d="M25 135q89 6 161 31l279 354l-285 357q-82 23 -149 28q0 86 14 139q29 0 126 -2t169 -2q227 0 309 4q13 -56 13 -139l-136 -24l176 -222l158 222l-117 24q0 53 11 139q25 0 104 -2t129 -2q168 0 221 4q9 -69 9 -121v-18q-74 -23 -140 -28l-268 -351l291 -360 q70 -8 145 -31q1 -13 1 -26q0 -55 -11 -111q-78 4 -303 4q-68 0 -169.5 -2t-135.5 -2q-15 67 -15 137l142 25l-181 223l-167 -223l112 -25q1 -13 1 -26q0 -55 -11 -111q-148 4 -250 4q-52 0 -124 -2t-95 -2q-14 63 -14 137z" />
<glyph unicode="y" horiz-adv-x="1239" d="M25 905q0 73 14 139q36 0 134 -2t165 -2q209 0 285 4q11 -59 11 -108q0 -16 -1 -31l-119 -24l178 -279l164 279l-127 24q0 83 10 139q23 0 102 -2t134 -2q115 0 225 4q9 -47 9 -106q0 -16 -1 -33q-80 -23 -137 -28l-311 -502v-86q0 -74 8 -123q108 -9 203 -31v-24 q0 -64 -13 -113q-88 4 -344 4q-77 0 -192 -2t-154 -2q-18 58 -18 137q78 4 215 31q8 36 8 90v123l-303 498q-79 23 -145 28z" />
<glyph unicode="z" horiz-adv-x="1073" d="M51 156l543 712h-291q-21 -116 -27 -172q-43 -8 -86 -8l-86 8q-25 105 -25 260q0 31 1 64l24 24q222 -4 412 -4h395q58 -74 66 -155l-541 -711h346q27 64 64 193q22 2 44 2q59 0 124 -17q0 -108 -21 -329l-24 -25q-109 4 -412 4h-479q-28 68 -28 131q0 12 1 23z" />
<glyph unicode="{" horiz-adv-x="929" d="M109 729q85 46 134 77t93 71q12 12 12 88q0 62 -9 216t-9 193q0 83 38 152.5t106.5 119.5t154.5 84.5t190 55.5q64 -49 64 -144q-178 -87 -230 -153q-13 -16 -25 -92t-12 -123v-408q0 -54 -56 -99.5t-161 -94.5q96 -36 156.5 -86.5t60.5 -106.5v-436q0 -46 12.5 -119 t24.5 -90q50 -66 228 -149q25 -97 -64 -156q-104 22 -190 58.5t-153.5 88.5t-105.5 124.5t-38 158.5q0 41 9 183.5t9 199.5q0 70 -12 82q-91 94 -207 149q-20 73 -20 156z" />
<glyph unicode="|" horiz-adv-x="632" d="M199 -426v2167h235v-2167h-235z" />
<glyph unicode="}" horiz-adv-x="929" d="M47 -328q175 86 229 154q13 16 25 92t12 123v408q0 54 55.5 99t159.5 95q-95 36 -155 86.5t-60 106.5v436q0 46 -12.5 119t-24.5 90q-50 66 -227 149q-25 97 64 156q104 -22 190 -58.5t153.5 -88.5t105.5 -124.5t38 -158.5q0 -41 -9 -183.5t-9 -199.5q0 -70 12 -82 q92 -95 207 -150q20 -73 20 -155q-85 -46 -134 -77t-93 -71q-12 -12 -12 -88q0 -62 9 -216t9 -193q0 -83 -38 -152.5t-106.5 -119.5t-154.5 -84.5t-190 -55.5q-64 49 -64 143z" />
<glyph unicode="~" horiz-adv-x="1040" d="M53 494q67 78 153 139t148 61q47 0 100.5 -18t93.5 -39t91 -39t94 -18q38 0 96 26t101 60q72 -48 78 -127q-67 -78 -153 -139.5t-148 -61.5q-47 0 -100.5 18t-93.5 39.5t-91 39.5t-94 18q-38 0 -96 -26t-101 -60q-72 48 -78 127z" />
<glyph unicode="&#xa2;" horiz-adv-x="989" d="M72 504q0 115 47.5 224.5t143 192.5t220.5 107v154q69 28 154 0v-146q159 -10 299 -75q-5 -117 -17.5 -189.5t-41.5 -132.5q-102 -29 -166 8q0 98 -11 182q-3 0 -25.5 4t-37.5 5v-625q90 2 254 70q44 -41 53 -127q-60 -50 -141.5 -90t-165.5 -58v-170q-87 -24 -154 0v160 q-105 7 -185 49t-128.5 110.5t-73 156t-24.5 190.5zM362 559q0 -90 29.5 -174.5t91.5 -130.5v575q-35 -12 -41 -20q-35 -38 -57.5 -107.5t-22.5 -142.5z" />
<glyph unicode="&#xa3;" horiz-adv-x="1036" d="M43 184q49 4 82.5 24.5t53.5 58t30 83t14 109.5h-98q-28 82 0 164h102q15 188 135.5 315t290.5 127q119 0 281 -51q0 -209 -41 -334q-78 -8 -166 12q-3 78 -22 170q-27 8 -80 8q-72 0 -88 -26q-30 -49 -37 -221h178q29 -73 0 -164h-186q-20 -152 -154 -240h356 q37 89 66 201q92 9 178 -17q12 -194 -18 -383l-23 -22q-129 4 -500 4h-334q-25 91 -20 182z" />
<glyph unicode="&#xa5;" horiz-adv-x="1048" d="M53 905q0 63 13 139q32 0 104 -2t113 -2q153 0 221 4q8 -34 12 -139l-102 -24l151 -226l154 226l-90 24q0 79 8 139q22 0 84 -2t98 -2q28 0 84 2t80 2q8 -43 8 -139q-59 -19 -123 -28l-157 -230h174q22 -56 0 -135h-234v-88h234q22 -56 0 -135h-234q0 -71 6 -123 q110 -8 205 -31q3 -73 -12 -137q-88 4 -330 4q-70 0 -182.5 -2t-153.5 -2q-16 51 -16 137q72 4 215 31q8 36 8 84v39h-229q-20 67 0 135h229v88h-229q-20 68 0 135h162l-170 230q-53 23 -101 28z" />
<glyph unicode="&#xa8;" d="M49 1264q0 72 49.5 132t122.5 60q55 0 100.5 -40t45.5 -95q0 -72 -50.5 -129.5t-121.5 -58.5q-57 0 -101.5 38.5t-44.5 92.5zM481 1264q0 70 51.5 131t120.5 61q58 0 102 -39.5t44 -95.5q0 -73 -49 -130t-123 -58q-54 0 -100 39t-46 92z" />
<glyph unicode="&#xa9;" horiz-adv-x="1525" d="M51 662q0 146 56 277.5t151 227t226.5 151.5t277.5 56t278 -56t227 -151.5t151.5 -227t56.5 -277.5t-56.5 -278t-151.5 -227t-227 -151.5t-278 -56.5t-277.5 56.5t-226.5 151.5t-151 227t-56 278zM227 662q0 -149 70.5 -275t193.5 -200t271 -74q150 0 273 73.5t193 199 t70 276.5q0 149 -70 274.5t-193.5 199.5t-272.5 74t-272 -73t-193 -198.5t-70 -276.5zM360 655q0 71 28 141.5t80 131t137.5 98t189.5 37.5q148 0 235 -41q0 -179 -26 -268q-74 -12 -146 12q-1 11 -12 111q-27 8 -96 8q-62 0 -78 -11q-9 -5 -22.5 -24t-26.5 -61.5t-13 -92.5 q0 -115 47 -179t129 -64q48 0 78 10q5 57 15 125q70 23 151 12q19 -105 19 -274q-121 -52 -277 -52q-101 0 -180.5 29.5t-129.5 82t-76 121t-26 148.5z" />
<glyph unicode="&#xab;" horiz-adv-x="1269" d="M86 453q-6 65 14 133l428 409q74 -26 119 -96l-258 -377l268 -368q-41 -78 -135 -115zM616 453q-6 62 15 133l428 409q74 -26 119 -96l-258 -377l268 -368q-41 -78 -135 -115z" />
<glyph unicode="&#xad;" horiz-adv-x="782" d="M131 410q-18 100 4 206l510 11q24 -108 4 -209z" />
<glyph unicode="&#xae;" horiz-adv-x="1089" d="M16 1090q0 141 71.5 260t193.5 187.5t264 68.5q106 0 203.5 -40.5t168.5 -109.5t113.5 -165t42.5 -201q0 -142 -72 -261t-193 -187.5t-263 -68.5q-143 0 -264.5 68.5t-193 187.5t-71.5 261zM174 1090q0 -155 108 -263t263 -108q154 0 262 108t108 263q0 154 -108 262 t-262 108q-155 0 -263 -108t-108 -262zM317 948l64 17v284l-64 17q-3 55 9 90l274 2q77 0 117.5 -42.5t40.5 -101.5q0 -81 -96 -137q18 -36 29.5 -56t33 -39t45.5 -19q15 0 35 4q22 -36 22 -76q-58 -35 -149 -35q-35 0 -74 59.5t-59 126.5l-35 5v-78l37 -19q7 -49 -4 -82 h-215q-14 33 -11 80zM512 1143h20q40 0 55 14t15 41q0 21 -15 35t-40 14h-35v-104z" />
<glyph unicode="&#xb4;" d="M283 1176l194 342q125 26 293 26l23 -59l-402 -398q-80 6 -108 89z" />
<glyph unicode="&#xb8;" d="M225 -457q189 74 189 166q0 37 -30 61.5t-85 20.5l-25 25l101 225h117l-48 -123q102 -1 161 -45t59 -117q0 -119 -116 -213.5t-280 -124.5q-51 54 -43 125z" />
<glyph unicode="&#xbb;" horiz-adv-x="1269" d="M82 879q41 77 135 114l436 -413q6 -66 -14 -134l-428 -409q-74 26 -119 96l258 377zM612 879q40 77 136 114l436 -413q6 -63 -15 -134l-428 -409q-73 26 -118 96l258 377z" />
<glyph unicode="&#x2c6;" d="M94 1163l225 353q92 21 185 18l241 -363q-39 -62 -108 -90l-227 205l-211 -205q-73 19 -105 82z" />
<glyph unicode="&#x2da;" d="M170 1325q0 90 82 167t184 77q116 0 179 -59t63 -179q0 -88 -82 -166t-184 -78q-115 0 -178.5 59.5t-63.5 178.5zM340 1335q0 -34 25.5 -62t60.5 -28q31 0 61 15q19 11 19 63q0 36 -24.5 62t-59.5 26q-41 0 -62 -14q-7 -5 -13.5 -23t-6.5 -39z" />
<glyph unicode="&#x2dc;" d="M45 1251q50 93 124.5 150t141.5 57q42 0 90.5 -27t92 -54t71.5 -27q23 0 60.5 24t74.5 62q68 -22 103 -90q-53 -94 -128.5 -152.5t-144.5 -58.5q-41 0 -90.5 27t-92 54t-66.5 27q-23 0 -61 -24t-75 -62q-75 25 -100 94z" />
<glyph unicode="&#x400;" horiz-adv-x="1208" d="M33 141q75 8 178 39q10 49 10 125v604q0 153 -10 283q-103 31 -178 39q0 80 16 143q39 0 145.5 -2t176.5 -2h252q354 0 481 4l24 -26q6 -253 -26 -400q-105 -17 -182 0q-9 112 -31 226h-365v-381l365 12l24 -25q-4 -120 -22 -180l-367 10v-411h391q41 113 74 252 q84 11 178 -15q0 -174 -22 -411l-25 -27q-127 4 -481 4h-264q-70 0 -178.5 -2t-147.5 -2q-16 63 -16 143zM270 1729q35 122 160 180l393 -295q0 -91 -73 -131l-467 194z" />
<glyph unicode="&#x401;" horiz-adv-x="1208" d="M33 141q75 8 178 39q10 49 10 125v604q0 153 -10 283q-103 31 -178 39q0 80 16 143q39 0 145.5 -2t176.5 -2h252q354 0 481 4l24 -26q6 -253 -26 -400q-105 -17 -182 0q-9 112 -31 226h-365v-381l365 12l24 -25q-4 -120 -22 -180l-367 10v-411h391q41 113 74 252 q84 11 178 -15q0 -174 -22 -411l-25 -27q-127 4 -481 4h-264q-70 0 -178.5 -2t-147.5 -2q-16 63 -16 143zM268 1638q0 70 49 129.5t119 59.5q53 0 95 -38t42 -93q0 -71 -46.5 -126.5t-114.5 -58.5q-56 0 -100 37t-44 90zM702 1638q0 69 49 129t115 60q57 0 100.5 -37.5 t43.5 -93.5q0 -71 -48 -126.5t-120 -58.5q-52 0 -96 37.5t-44 89.5z" />
<glyph unicode="&#x402;" horiz-adv-x="1603" d="M23 1350l24 24q127 -4 481 -4h365q354 0 481 4l25 -24q8 -201 -27 -355q-105 -17 -182 0q-5 78 -31 179h-344v-412q172 88 326 88q183 0 307.5 -145t124.5 -353q0 -280 -158 -488t-448 -304q-59 63 -62 135q79 48 139.5 104t109 127t74 161.5t25.5 195.5 q0 167 -65.5 259.5t-181.5 92.5q-72 0 -191 -35v-250q0 -99 8 -170q82 -8 166 -39q3 -76 -12 -143q-80 4 -315 4q-84 0 -210 -2t-173 -2q-21 62 -21 143q93 7 244 39q10 49 10 125v869h-250q-26 -160 -31 -275q-77 -17 -182 0q-34 190 -26 451z" />
<glyph unicode="&#x403;" horiz-adv-x="1112" d="M33 141q75 8 178 39q10 49 10 125v604q0 156 -10 283q-103 31 -178 39q0 80 16 143q39 0 146.5 -2t177.5 -2h221q354 0 481 4l25 -26q6 -262 -27 -424q-105 -17 -182 0q-9 123 -31 250h-336v-824q0 -99 8 -170q115 -8 232 -39q3 -79 -14 -143q-96 4 -379 4 q-70 0 -176.5 -2t-145.5 -2q-16 63 -16 143zM414 1610l409 280q125 -64 152 -194l-14 -51l-478 -168q-55 52 -69 133z" />
<glyph unicode="&#x404;" horiz-adv-x="1228" d="M55 662q0 106 28.5 210.5t87.5 200.5t142 169.5t200.5 117t254.5 43.5q236 0 397 -64q0 -238 -47 -393q-84 -14 -174 15q-4 80 -26 202q-73 13 -191 13q-71 0 -132 -13.5t-83 -29.5q-31 -23 -78.5 -119t-56.5 -221l422 14l24 -25q0 -111 -22 -184l-418 14 q24 -192 123.5 -303.5t271.5 -111.5q94 0 168 18q19 132 27 227q95 29 182 15q31 -155 31 -408q-219 -80 -455 -80q-133 0 -244.5 35.5t-190.5 98.5t-134 150t-81 190t-26 219z" />
<glyph unicode="&#x405;" horiz-adv-x="1105" d="M43 70q6 218 49 393q81 23 182 -10q7 -123 23 -240q92 -39 219 -39q51 0 99.5 14.5t60.5 24.5q51 45 51 147q0 61 -53.5 107.5t-157.5 87.5l-158 63q-59 24 -105 52.5t-90 71.5t-68.5 105.5t-24.5 139.5q0 107 44 190t117 131t159 71.5t179 23.5q102 0 222 -22.5 t210 -59.5q-3 -191 -32 -348q-107 -28 -178 10q-5 91 -25 193q-77 26 -203 26q-38 0 -81 -8.5t-52 -15.5q-47 -37 -47 -117q0 -27 14 -52t30 -41t50.5 -36t51.5 -28.5t57 -26.5l168 -76q60 -26 107 -56t91 -73t68 -101.5t24 -128.5q0 -202 -138 -337.5t-367 -135.5 q-143 0 -277 28t-219 73z" />
<glyph unicode="&#x406;" horiz-adv-x="741" d="M33 141q75 8 178 39q10 49 10 125v604q0 156 -10 283q-103 31 -178 39q0 80 16 143q39 0 145.5 -2t176.5 -2q235 0 315 4q15 -67 12 -143q-84 -31 -166 -39q-8 -101 -8 -283v-559q0 -99 8 -170q82 -8 166 -39q3 -76 -12 -143q-80 4 -315 4q-70 0 -176.5 -2t-145.5 -2 q-16 63 -16 143z" />
<glyph unicode="&#x407;" horiz-adv-x="741" d="M2 1638q0 70 49 129.5t119 59.5q53 0 95 -38t42 -93q0 -71 -47 -126.5t-115 -58.5q-56 0 -99.5 37t-43.5 90zM33 141q75 8 178 39q10 49 10 125v604q0 156 -10 283q-103 31 -178 39q0 80 16 143q39 0 145.5 -2t176.5 -2q235 0 315 4q15 -67 12 -143q-84 -31 -166 -39 q-8 -101 -8 -283v-559q0 -99 8 -170q82 -8 166 -39q3 -76 -12 -143q-80 4 -315 4q-70 0 -176.5 -2t-145.5 -2q-16 63 -16 143zM436 1638q0 69 49 129t115 60q57 0 100 -37.5t43 -93.5q0 -71 -48 -126.5t-120 -58.5q-52 0 -95.5 37.5t-43.5 89.5z" />
<glyph unicode="&#x408;" horiz-adv-x="700" d="M-123 -299q159 63 241.5 161.5t82.5 248.5v798q0 144 -11 283q-103 31 -178 39q0 76 17 143q39 0 146 -2t177 -2q234 0 314 4q15 -67 12 -143q-84 -31 -166 -39q-8 -101 -8 -283v-821q0 -165 -73.5 -281.5t-203.5 -176.5t-311 -70q-50 63 -39 141z" />
<glyph unicode="&#x409;" horiz-adv-x="1908" d="M6 154q6 46 37.5 93t73.5 75l198 -74q94 164 141 387.5t62 554.5q-87 29 -182 41q0 80 16 143q39 0 145.5 -2t176.5 -2h403q285 0 381 4q15 -67 12 -143q-114 -31 -231 -39q-8 -101 -8 -283v-90q124 15 201 15q205 0 334.5 -109t129.5 -272q0 -83 -41 -166t-110 -148 t-168.5 -106t-208.5 -41q-44 0 -136 5t-155 5q-76 0 -193 -2t-159 -2q-18 60 -18 143q83 7 211 39q10 49 10 125v869h-191q-10 -290 -57 -529.5t-136.5 -419.5t-213.5 -262q-120 31 -193.5 76t-130.5 115zM1231 195h80q177 0 209 32q61 61 61 187q0 108 -70.5 167.5 t-205.5 59.5q-13 0 -37 -1t-37 -1v-444z" />
<glyph unicode="&#x40a;" horiz-adv-x="2033" d="M33 141q75 8 178 39q10 49 10 125v604q0 156 -10 283q-103 31 -178 39q0 80 16 143q39 0 145.5 -2t176.5 -2q235 0 315 4q15 -67 12 -143q-84 -31 -166 -39q-8 -101 -8 -283v-100h529v100q0 144 -11 283q-103 31 -178 39q0 76 17 143q39 0 145 -2t176 -2q285 0 381 4 q15 -67 12 -143q-114 -31 -231 -39q-8 -101 -8 -283v-90q124 15 200 15q205 0 335 -109t130 -272q0 -83 -41 -166t-110 -148t-168.5 -106t-208.5 -41q-44 0 -136 5t-155 5q-70 0 -176 -2t-145 -2q-17 67 -17 143q75 8 178 39q11 54 11 125v297q-229 14 -387 14h-142v-266 q0 -99 8 -170q82 -8 166 -39q3 -76 -12 -143q-80 4 -315 4q-70 0 -176.5 -2t-145.5 -2q-16 63 -16 143zM1356 195h80q177 0 209 32q61 61 61 187q0 108 -70.5 167.5t-205.5 59.5q-12 0 -37 -1t-37 -1v-444z" />
<glyph unicode="&#x40b;" horiz-adv-x="1712" d="M23 1350l24 24q127 -4 481 -4h365q354 0 481 4l25 -24q8 -201 -27 -355q-105 -17 -182 0q-5 78 -31 179h-344v-422q180 90 334 90q179 0 271.5 -97t92.5 -290v-275q82 -8 166 -39q3 -76 -12 -143q-70 4 -305 4q-67 0 -154 -2t-116 -2q-15 59 -15 143q53 7 133 39v223 q0 116 -40 174t-134 58q-105 0 -221 -37v-248q0 -99 8 -170q64 -8 131 -39q3 -76 -12 -143q-72 4 -289 4q-82 0 -205 -2t-169 -2q-21 62 -21 143q93 7 244 39q10 49 10 125v869h-250q-26 -160 -31 -275q-77 -17 -182 0q-34 190 -26 451z" />
<glyph unicode="&#x40c;" horiz-adv-x="1431" d="M33 141q75 8 178 39q10 49 10 125v604q0 156 -10 283q-103 31 -178 39q0 80 16 143q39 0 145.5 -2t176.5 -2q235 0 315 4q15 -67 12 -143q-84 -31 -166 -39q-8 -101 -8 -283v-102h221l191 395q69 145 123 197q203 -28 319 -107q9 -52 -6.5 -107t-46.5 -91l-209 18 l-170 -358l322 -576q74 -8 151 -39q3 -76 -12 -143q-86 4 -266 4h-133l-320 618h-164v-268q0 -99 8 -170q82 -8 166 -39q3 -76 -12 -143q-80 4 -315 4q-70 0 -176.5 -2t-145.5 -2q-16 63 -16 143zM532 1610l410 280q125 -64 152 -194l-15 -51l-477 -168q-56 53 -70 133z" />
<glyph unicode="&#x40d;" horiz-adv-x="1593" d="M33 141q75 8 178 39q10 49 10 125v604q0 156 -10 283q-103 31 -178 39q0 80 16 143q39 0 145.5 -2t176.5 -2q235 0 315 4q15 -67 12 -143q-84 -31 -166 -39q-8 -101 -8 -283v-338l545 510l-6 111q-103 31 -178 39q0 80 16 143q39 0 145.5 -2t176.5 -2q235 0 315 4 q15 -67 12 -143q-84 -31 -166 -39q-8 -101 -8 -283v-559q0 -99 8 -170q82 -8 166 -39q3 -76 -12 -143q-80 4 -315 4q-70 0 -176.5 -2t-145.5 -2q-16 63 -16 143q75 8 178 39q10 49 10 125v522l-549 -516q0 -76 8 -131q82 -8 166 -39q3 -76 -12 -143q-80 4 -315 4 q-70 0 -176.5 -2t-145.5 -2q-16 63 -16 143zM420 1729q35 122 160 180l393 -295q0 -90 -74 -131l-467 194z" />
<glyph unicode="&#x40e;" horiz-adv-x="1388" d="M6 1231q0 76 17 143q43 0 157.5 -2t188.5 -2q229 0 329 4q16 -71 13 -143l-183 -35l271 -504l211 504l-174 35q0 73 12 143q38 0 127 -2t129 -2q194 0 262 4q13 -72 10 -143q-77 -31 -151 -39l-402 -895q-102 -225 -223 -334q-110 25 -205 81.5t-153 125.5q6 46 36 92 t72 76l236 -90q27 47 61 133l-477 811q-97 32 -164 39zM381 1759q34 33 110.5 47t145.5 -4v-20q0 -62 30.5 -104t80.5 -42q66 0 86 27q18 21 18 129v10q69 19 154.5 4t119.5 -47q0 -104 -116.5 -184t-282.5 -80q-164 0 -255 72t-91 192z" />
<glyph unicode="&#x40f;" horiz-adv-x="1521" d="M33 141q75 8 178 39q10 49 10 125v604q0 156 -10 283q-103 31 -178 39q0 80 16 143q39 0 145.5 -2t176.5 -2q235 0 315 4q15 -67 12 -143q-84 -31 -166 -39q-8 -101 -8 -283v-710h477v710q0 156 -10 283q-103 31 -178 39q0 80 16 143q39 0 145.5 -2t176.5 -2q235 0 315 4 q16 -71 13 -143q-84 -31 -166 -39q-8 -101 -8 -283v-559q0 -99 8 -170q82 -8 166 -39q3 -72 -13 -143q-80 4 -315 4h-262q-25 -221 -29 -336q-43 -9 -98 -9t-98 9q-4 115 -29 336h-264q-70 0 -176.5 -2t-145.5 -2q-16 63 -16 143z" />
<glyph unicode="&#x410;" horiz-adv-x="1468" d="M10 141q67 7 164 39l420 1168q122 34 276 34l439 -1202q74 -8 151 -39q3 -76 -12 -143q-76 4 -307 4q-68 0 -178.5 -2t-153.5 -2q-16 63 -16 143l194 35l-78 215q-173 10 -305 10h-137l-78 -225l182 -35q3 -76 -12 -143q-84 4 -287 4q-56 0 -136.5 -2t-108.5 -2 q-17 67 -17 143zM526 575h318l-119 330l-4 211h-8z" />
<glyph unicode="&#x411;" horiz-adv-x="1282" d="M33 141q75 8 178 39q10 49 10 125v604q0 153 -10 283q-103 31 -178 39q0 80 16 143q39 0 145.5 -2t176.5 -2h262q354 0 481 4l25 -24q6 -228 -27 -365q-105 -17 -182 0q-9 97 -31 189h-375v-367q128 16 244 16q217 0 350 -107t133 -270q0 -82 -41.5 -163.5t-113 -146 t-177 -104.5t-223.5 -40q-48 0 -149.5 5t-171.5 5t-178.5 -2t-147.5 -2q-16 63 -16 143zM524 195h94q205 0 246 32q72 59 72 183q0 105 -79 163t-230 58q-37 0 -103 -4v-432z" />
<glyph unicode="&#x412;" horiz-adv-x="1282" d="M33 141q75 8 178 39q10 49 10 125v604q0 156 -10 283q-103 31 -178 39q0 80 16 143q39 0 145.5 -2t176.5 -2q91 0 231.5 5t190.5 5q166 0 275.5 -91t109.5 -228q0 -87 -48.5 -166t-152.5 -133q135 -46 204.5 -130t69.5 -188q0 -82 -41.5 -163t-113 -145t-177 -104 t-223.5 -40q-48 0 -151.5 5t-173.5 5t-176.5 -2t-145.5 -2q-16 63 -16 143zM524 195h94q205 0 246 32q72 59 72 181q0 104 -78.5 158.5t-230.5 54.5h-103v-426zM524 809h78q137 0 197.5 55t60.5 140q0 74 -51 126t-127 52q-5 0 -158 -6v-367z" />
<glyph unicode="&#x413;" horiz-adv-x="1112" d="M33 141q75 8 178 39q10 49 10 125v604q0 156 -10 283q-103 31 -178 39q0 80 16 143q39 0 146.5 -2t177.5 -2h221q354 0 481 4l25 -26q6 -262 -27 -424q-105 -17 -182 0q-9 123 -31 250h-336v-824q0 -99 8 -170q115 -8 232 -39q3 -79 -14 -143q-96 4 -379 4 q-70 0 -176.5 -2t-145.5 -2q-16 63 -16 143z" />
<glyph unicode="&#x414;" horiz-adv-x="1509" d="M8 178l25 25l186 -4q116 216 173 456.5t69 536.5q-77 26 -178 39q0 80 16 143q39 0 145.5 -2t176.5 -2h438q235 0 315 4q15 -67 12 -143q-85 -31 -165 -39q-9 -114 -9 -283v-710q121 0 265 4l24 -25q8 -282 -26 -512q-108 -18 -189 0q-7 142 -33 336h-997 q-31 -183 -39 -336q-77 -17 -182 0q-35 234 -27 512zM461 199h53h395v975h-229q-11 -516 -219 -975z" />
<glyph unicode="&#x415;" horiz-adv-x="1208" d="M33 141q75 8 178 39q10 49 10 125v604q0 153 -10 283q-103 31 -178 39q0 80 16 143q39 0 145.5 -2t176.5 -2h252q354 0 481 4l24 -26q6 -253 -26 -400q-105 -17 -182 0q-9 112 -31 226h-365v-381l365 12l24 -25q-4 -120 -22 -180l-367 10v-411h391q41 113 74 252 q84 11 178 -15q0 -174 -22 -411l-25 -27q-127 4 -481 4h-264q-70 0 -178.5 -2t-147.5 -2q-16 63 -16 143z" />
<glyph unicode="&#x416;" horiz-adv-x="1984" d="M12 139q72 13 152 39l315 565l-174 369l-209 -18q-31 36 -46.5 91t-6.5 107q116 79 319 107q54 -52 123 -197l191 -395h164v102q0 144 -11 283q-92 31 -161 39q0 80 16 143q36 0 136.5 -2t164.5 -2q219 0 295 4q15 -67 12 -143q-78 -31 -149 -39q-8 -101 -8 -283v-102 h163l191 395q69 145 123 197q203 -28 319 -107q9 -52 -6.5 -107t-46.5 -91l-209 18l-170 -358l322 -576q74 -8 151 -39q3 -76 -12 -143q-86 4 -266 4h-133l-320 618h-106v-268q0 -99 8 -170q71 -8 149 -39q3 -76 -12 -143q-76 4 -295 4q-64 0 -164.5 -2t-136.5 -2 q-16 63 -16 143q69 8 161 39q11 54 11 125v313h-109l-317 -618h-123q-180 0 -266 -4q-16 71 -13 143z" />
<glyph unicode="&#x417;" horiz-adv-x="1120" d="M43 35q3 244 37 403q77 21 174 11q19 -152 51 -238q50 -14 172 -14q61 0 128.5 14.5t88.5 28.5q72 55 72 172q0 71 -50 123t-143 69l-200 -18l-25 24q-10 121 39 224l191 -7q66 29 99.5 81t33.5 110q0 65 -68.5 111.5t-161.5 46.5q-81 0 -151 -13q-30 -87 -37 -209 q-96 -22 -178 0q-49 149 -52 334q210 115 488 115q131 0 239.5 -41t172 -116t63.5 -169q0 -186 -199 -295q131 -42 197 -130.5t66 -207.5q0 -84 -50.5 -169t-134.5 -153t-203 -110.5t-247 -42.5q-229 0 -412 66z" />
<glyph unicode="&#x418;" horiz-adv-x="1593" d="M33 141q75 8 178 39q10 49 10 125v604q0 156 -10 283q-103 31 -178 39q0 80 16 143q39 0 145.5 -2t176.5 -2q235 0 315 4q15 -67 12 -143q-84 -31 -166 -39q-8 -101 -8 -283v-338l545 510l-6 111q-103 31 -178 39q0 80 16 143q39 0 145.5 -2t176.5 -2q235 0 315 4 q15 -67 12 -143q-84 -31 -166 -39q-8 -101 -8 -283v-559q0 -99 8 -170q82 -8 166 -39q3 -76 -12 -143q-80 4 -315 4q-70 0 -176.5 -2t-145.5 -2q-16 63 -16 143q75 8 178 39q10 49 10 125v522l-549 -516q0 -76 8 -131q82 -8 166 -39q3 -76 -12 -143q-80 4 -315 4 q-70 0 -176.5 -2t-145.5 -2q-16 63 -16 143z" />
<glyph unicode="&#x419;" horiz-adv-x="1593" d="M33 141q75 8 178 39q10 49 10 125v604q0 156 -10 283q-103 31 -178 39q0 80 16 143q39 0 145.5 -2t176.5 -2q235 0 315 4q15 -67 12 -143q-84 -31 -166 -39q-8 -101 -8 -283v-338l545 510l-6 111q-103 31 -178 39q0 80 16 143q39 0 145.5 -2t176.5 -2q235 0 315 4 q15 -67 12 -143q-84 -31 -166 -39q-8 -101 -8 -283v-559q0 -99 8 -170q82 -8 166 -39q3 -76 -12 -143q-80 4 -315 4q-70 0 -176.5 -2t-145.5 -2q-16 63 -16 143q75 8 178 39q10 49 10 125v522l-549 -516q0 -76 8 -131q82 -8 166 -39q3 -76 -12 -143q-80 4 -315 4 q-70 0 -176.5 -2t-145.5 -2q-16 63 -16 143zM426 1759q34 33 110.5 47t145.5 -4v-20q0 -62 30.5 -104t80.5 -42q66 0 86 27q18 21 18 129v10q69 19 154.5 4t119.5 -47q0 -104 -116.5 -184t-282.5 -80q-164 0 -255 72t-91 192z" />
<glyph unicode="&#x41a;" horiz-adv-x="1431" d="M33 141q75 8 178 39q10 49 10 125v604q0 156 -10 283q-103 31 -178 39q0 80 16 143q39 0 145.5 -2t176.5 -2q235 0 315 4q15 -67 12 -143q-84 -31 -166 -39q-8 -101 -8 -283v-102h221l191 395q69 145 123 197q203 -28 319 -107q9 -52 -6.5 -107t-46.5 -91l-209 18 l-170 -358l322 -576q74 -8 151 -39q3 -76 -12 -143q-86 4 -266 4h-133l-320 618h-164v-268q0 -99 8 -170q82 -8 166 -39q3 -76 -12 -143q-80 4 -315 4q-70 0 -176.5 -2t-145.5 -2q-16 63 -16 143z" />
<glyph unicode="&#x41b;" horiz-adv-x="1468" d="M6 154q6 46 37.5 93t73.5 75l198 -74q94 164 141 387.5t62 554.5q-87 29 -182 41q0 80 16 143q39 0 145.5 -2t176.5 -2h424q235 0 315 4q15 -67 12 -143q-85 -31 -165 -39q-9 -114 -9 -283v-559q0 -90 9 -170q80 -8 165 -39q3 -76 -12 -143q-80 4 -315 4q-76 0 -193.5 -2 t-159.5 -2q-18 60 -18 143q89 8 211 39q10 49 10 125v869h-211q-10 -290 -57 -529.5t-136.5 -419.5t-213.5 -262q-120 31 -193.5 76t-130.5 115z" />
<glyph unicode="&#x41c;" horiz-adv-x="1900" d="M10 141q75 8 178 39l103 1012q-103 31 -178 39q0 80 16 143q35 0 129.5 -2t157.5 -2q202 0 319 -6l193 -756l8 -225h8l242 981q117 6 287 6q229 0 305 4q15 -67 12 -143q-84 -31 -166 -39l98 -1012q82 -8 166 -39q3 -76 -12 -143q-78 4 -305 4q-67 0 -169 -2t-140 -2 q-17 67 -17 143l176 39l-75 764l16 225h-8l-305 -1144q-115 -35 -273 -35l-241 954l-19 225h-8l-98 -987l165 -41q3 -76 -12 -143q-80 4 -297 4q-38 0 -119 -2t-120 -2q-17 67 -17 143z" />
<glyph unicode="&#x41d;" horiz-adv-x="1593" d="M33 141q75 8 178 39q10 49 10 125v604q0 156 -10 283q-103 31 -178 39q0 80 16 143q39 0 145.5 -2t176.5 -2q235 0 315 4q15 -67 12 -143q-84 -31 -166 -39q-8 -101 -8 -283v-100h549v100q0 156 -10 283q-103 31 -178 39q0 80 16 143q39 0 145.5 -2t176.5 -2q235 0 315 4 q15 -67 12 -143q-84 -31 -166 -39q-8 -101 -8 -283v-559q0 -99 8 -170q82 -8 166 -39q3 -76 -12 -143q-80 4 -315 4q-70 0 -176.5 -2t-145.5 -2q-16 63 -16 143q75 8 178 39q10 49 10 125v297q-229 14 -387 14h-162v-266q0 -99 8 -170q82 -8 166 -39q3 -76 -12 -143 q-80 4 -315 4q-70 0 -176.5 -2t-145.5 -2q-16 63 -16 143z" />
<glyph unicode="&#x41e;" horiz-adv-x="1421" d="M55 662q0 107 29.5 213.5t88.5 202.5t139 170t189 117.5t230 43.5q150 0 271.5 -53.5t200.5 -148t121 -221.5t42 -275q0 -107 -29.5 -214.5t-88.5 -203t-139 -169.5t-188.5 -117.5t-230.5 -43.5q-152 0 -273.5 54t-200 149t-120 221.5t-41.5 274.5zM375 743 q0 -114 21.5 -211t65 -175t117 -122.5t169.5 -44.5q56 0 112 19.5t72 40.5q48 58 81.5 154.5t33.5 224.5q0 114 -21.5 211t-65 175t-117 122.5t-169.5 44.5q-56 0 -112.5 -19.5t-72.5 -40.5q-48 -57 -81 -154t-33 -225z" />
<glyph unicode="&#x41f;" horiz-adv-x="1560" d="M33 141q75 8 178 39q10 49 10 125v604q0 156 -10 283q-103 31 -178 39q0 80 16 143q39 0 145.5 -2t176.5 -2h819q235 0 315 4q16 -71 13 -143q-84 -31 -166 -39q-9 -114 -9 -283v-559q0 -90 9 -170q82 -8 166 -39q3 -72 -13 -143q-80 4 -315 4q-70 0 -176.5 -2t-145.5 -2 q-16 63 -16 143q75 8 178 39q10 49 10 125v869h-516v-824q0 -99 8 -170q82 -8 166 -39q3 -76 -12 -143q-80 4 -315 4q-70 0 -176.5 -2t-145.5 -2q-16 63 -16 143z" />
<glyph unicode="&#x420;" horiz-adv-x="1230" d="M33 141q75 8 178 39q10 49 10 125v604q0 156 -10 283q-103 31 -178 39q0 80 16 143q39 0 145.5 -2t176.5 -2t207.5 5t191.5 5q104 0 189 -31.5t138.5 -85.5t82 -123t28.5 -147q0 -130 -77.5 -248t-210 -190t-283.5 -72q-43 0 -113 4v-137q0 -99 8 -170q115 -8 232 -39 q3 -79 -14 -143q-96 4 -379 4q-70 0 -176.5 -2t-145.5 -2q-16 63 -16 143zM524 692q29 -2 90 -2q66 0 128.5 15.5t72.5 25.5q74 65 74 217q0 92 -54.5 163t-150.5 71q-54 0 -160 -4v-486z" />
<glyph unicode="&#x421;" horiz-adv-x="1228" d="M55 662q0 106 28.5 210.5t87.5 200.5t142 169.5t200.5 117t254.5 43.5q236 0 397 -64q0 -252 -47 -413q-86 -15 -174 14q-5 92 -26 223q-73 13 -191 13q-71 0 -132 -13.5t-83 -29.5q-13 -9 -33.5 -39.5t-45 -79t-41.5 -121.5t-17 -150q0 -118 24 -216t72.5 -172.5 t126.5 -116t180 -41.5q94 0 168 18q19 144 27 248q92 28 182 14q31 -163 31 -428q-219 -80 -455 -80q-133 0 -244.5 35.5t-190.5 98.5t-134 150t-81 190t-26 219z" />
<glyph unicode="&#x422;" horiz-adv-x="1329" d="M23 1350l24 24q127 -4 481 -4h273q354 0 481 4l25 -24q8 -256 -27 -451q-105 -17 -182 0q-5 115 -31 275h-252v-824q0 -99 8 -170q115 -8 232 -39q3 -76 -15 -143q-96 4 -378 4q-83 0 -210 -2t-173 -2q-21 62 -21 143q100 7 244 39q10 49 10 125v869h-250 q-26 -160 -31 -275q-77 -17 -182 0q-34 190 -26 451z" />
<glyph unicode="&#x423;" horiz-adv-x="1388" d="M6 1231q0 76 17 143q43 0 157.5 -2t188.5 -2q229 0 329 4q16 -71 13 -143l-183 -35l271 -504l211 504l-174 35q0 73 12 143q38 0 127 -2t129 -2q194 0 262 4q13 -72 10 -143q-77 -31 -151 -39l-402 -895q-102 -225 -223 -334q-110 25 -205 81.5t-153 125.5q6 46 36 92 t72 76l236 -90q27 47 61 133l-477 811q-97 32 -164 39z" />
<glyph unicode="&#x424;" horiz-adv-x="1640" d="M51 649q0 123 47 221.5t131.5 164t196.5 102.5t246 45v71q-161 24 -254 29q0 84 20 143q46 0 172 -2t207 -2q279 0 375 4q17 -67 14 -149q-115 -24 -239 -29v-65q151 -7 263 -35t194 -82t123.5 -140t41.5 -204q0 -164 -83 -283t-221 -180t-318 -70v-67q128 -8 239 -31 q3 -79 -14 -143q-96 4 -375 4q-81 0 -207 -2t-172 -2q-20 59 -20 143q93 5 254 29v69q-307 14 -464 121.5t-157 339.5zM356 711q0 -165 82 -261.5t234 -99.5v670q-78 -3 -145.5 -18.5t-82.5 -30.5q-39 -36 -63.5 -108.5t-24.5 -151.5zM967 350q78 1 144.5 17t82.5 32 q39 36 63.5 109.5t24.5 150.5q0 166 -82 262t-233 99v-670z" />
<glyph unicode="&#x425;" horiz-adv-x="1419" d="M6 141q75 8 178 39l342 508l-348 504q-97 32 -164 39q0 76 17 143q36 0 144.5 -2t184.5 -2q252 0 340 4q16 -71 13 -143l-168 -35l229 -332l211 332l-154 35q0 67 13 143q34 0 122.5 -2t141.5 -2q191 0 254 4q13 -72 10 -143q-77 -31 -151 -39l-332 -492l362 -520 q75 -8 156 -39q3 -76 -12 -143q-84 4 -336 4q-74 0 -187 -2t-153 -2q-17 67 -17 143l181 35l-240 344l-223 -344l147 -35q3 -76 -12 -143q-80 4 -279 4q-55 0 -138.5 -2t-114.5 -2q-17 67 -17 143z" />
<glyph unicode="&#x426;" horiz-adv-x="1601" d="M33 141q75 8 178 39q10 49 10 125v604q0 156 -10 283q-103 31 -178 39q0 80 16 143q39 0 145.5 -2t176.5 -2q235 0 315 4q15 -67 12 -143q-84 -31 -166 -39q-8 -101 -8 -283v-710h477v710q0 156 -10 283q-103 31 -178 39q0 80 16 143q39 0 145.5 -2t176.5 -2q235 0 315 4 q16 -71 13 -143q-84 -31 -166 -39q-8 -101 -8 -283v-710q120 0 264 4l24 -25q8 -292 -26 -512q-108 -18 -189 0q-8 155 -32 336h-975q-70 0 -176.5 -2t-145.5 -2q-16 63 -16 143z" />
<glyph unicode="&#x427;" horiz-adv-x="1472" d="M6 1231q0 76 17 143q39 0 145 -2t176 -2q221 0 289 4q15 -67 12 -143q-70 -31 -147 -39v-213q0 -137 50.5 -212t151.5 -75q125 0 252 51v166q0 156 -10 283q-103 31 -178 39q0 80 16 143q39 0 145.5 -2t176.5 -2q235 0 315 4q16 -71 13 -143q-84 -31 -166 -39 q-9 -114 -9 -283v-559q0 -90 9 -170q82 -8 166 -39q3 -72 -13 -143q-80 4 -315 4q-83 0 -210 -2t-173 -2q-21 62 -21 143q100 7 244 39q10 49 10 125v268q-176 -88 -370 -88q-183 0 -285 110t-102 341v254q-118 34 -189 41z" />
<glyph unicode="&#x428;" horiz-adv-x="2129" d="M33 141q75 8 178 39q10 49 10 125v604q0 156 -10 283q-103 31 -178 39q0 80 16 143q39 0 145.5 -2t176.5 -2q219 0 293 4q15 -67 12 -143q-74 -31 -144 -39q-8 -101 -8 -283v-710h391v710q0 156 -10 283q-88 31 -155 39q0 80 16 143q36 0 135 -2t164 -2q219 0 293 4 q15 -67 12 -143q-75 -31 -143 -39q-8 -101 -8 -283v-710h391v710q0 144 -11 283q-88 31 -155 39q0 77 14 143q37 0 136.5 -2t164.5 -2q236 0 316 4q15 -67 12 -143q-84 -31 -166 -39q-8 -101 -8 -283v-559q0 -99 8 -170q82 -8 166 -39q3 -76 -12 -143q-80 4 -316 4h-1388 q-70 0 -176.5 -2t-145.5 -2q-16 63 -16 143z" />
<glyph unicode="&#x429;" horiz-adv-x="2209" d="M33 141q75 8 178 39q10 49 10 125v604q0 156 -10 283q-103 31 -178 39q0 80 16 143q39 0 145.5 -2t176.5 -2q219 0 293 4q15 -67 12 -143q-74 -31 -144 -39q-8 -101 -8 -283v-710h391v710q0 156 -10 283q-88 31 -155 39q0 80 16 143q36 0 135 -2t164 -2q219 0 293 4 q15 -67 12 -143q-75 -31 -143 -39q-8 -101 -8 -283v-710h391v710q0 144 -11 283q-88 31 -155 39q0 80 16 143q36 0 135 -2t164 -2q236 0 316 4q15 -67 12 -143q-84 -31 -166 -39q-8 -101 -8 -283v-710q120 0 264 4l25 -25q8 -287 -27 -512q-108 -17 -188 0q-7 142 -33 336 h-1583q-70 0 -176.5 -2t-145.5 -2q-16 63 -16 143z" />
<glyph unicode="&#x42a;" horiz-adv-x="1497" d="M23 1350l24 24q127 -4 481 -4h76q285 0 381 4q15 -67 12 -143q-114 -31 -231 -39q-8 -101 -8 -283v-92q136 17 243 17q217 0 350.5 -108.5t133.5 -272.5q0 -84 -41.5 -166.5t-113 -148t-177 -106t-223.5 -40.5q-48 0 -152 5t-174 5t-176 -2t-145 -2q-17 67 -17 143 q75 8 178 39q11 54 11 125v869h-193q-26 -160 -31 -275q-77 -17 -182 0q-34 190 -26 451zM758 195h94q205 0 246 32q71 61 71 187q0 108 -79 167.5t-230 59.5q-36 0 -102 -4v-442z" />
<glyph unicode="&#x42b;" horiz-adv-x="1923" d="M33 141q75 8 178 39q10 49 10 125v604q0 156 -10 283q-103 31 -178 39q0 80 16 143q39 0 145.5 -2t176.5 -2q285 0 381 4q15 -67 12 -143q-113 -31 -232 -39q-8 -101 -8 -283v-90q124 15 201 15q205 0 335 -109t130 -272q0 -83 -41 -166t-110 -148t-168.5 -106 t-208.5 -41q-44 0 -136 5t-155 5q-70 0 -176.5 -2t-145.5 -2q-16 63 -16 143zM524 195h80q177 0 209 32q61 61 61 187q0 108 -70.5 167.5t-205.5 59.5q-12 0 -37 -1t-37 -1v-444zM1214 141q77 8 179 39q10 49 10 125v604q0 156 -10 283q-102 31 -179 39q0 76 17 143 q39 0 145 -2t176 -2q236 0 316 4q15 -67 12 -143q-84 -31 -166 -39q-8 -101 -8 -283v-559q0 -99 8 -170q82 -8 166 -39q3 -76 -12 -143q-80 4 -316 4q-70 0 -176 -2t-145 -2q-17 67 -17 143z" />
<glyph unicode="&#x42c;" horiz-adv-x="1263" d="M33 141q75 8 178 39q10 49 10 125v604q0 156 -10 283q-103 31 -178 39q0 80 16 143q39 0 145.5 -2t176.5 -2q285 0 381 4q15 -67 12 -143q-113 -31 -232 -39q-8 -101 -8 -283v-92q136 17 244 17q217 0 350 -108.5t133 -272.5q0 -84 -41.5 -166.5t-113 -148t-177 -106 t-223.5 -40.5q-48 0 -151.5 5t-173.5 5t-176.5 -2t-145.5 -2q-16 63 -16 143zM524 195h94q205 0 246 32q72 62 72 187q0 108 -79 167.5t-230 59.5q-37 0 -103 -4v-442z" />
<glyph unicode="&#x42d;" horiz-adv-x="1220" d="M51 35q0 249 37 403q82 21 174 11q16 -134 51 -238q57 -14 152 -14q73 0 138 14.5t91 30.5q13 8 35 37t48.5 74.5t46 115t22.5 143.5l-424 -18l-25 24q0 117 23 193l414 -18q-27 177 -117.5 280t-237.5 103q-83 0 -141 -13q-30 -85 -37 -209q-92 -22 -178 0 q-45 129 -51 334q93 52 209.5 83.5t232.5 31.5q160 0 286 -53.5t204.5 -147.5t119.5 -217.5t41 -269.5q0 -142 -51 -275.5t-142.5 -238.5t-232 -168.5t-307.5 -63.5q-185 0 -381 66z" />
<glyph unicode="&#x42e;" horiz-adv-x="2066" d="M33 141q75 8 178 39q10 49 10 125v604q0 156 -10 283q-103 31 -178 39q0 80 16 143q39 0 145.5 -2t176.5 -2q235 0 315 4q15 -67 12 -143q-84 -31 -166 -39q-8 -101 -8 -283v-121h262q19 120 70.5 230t129.5 198t189 140.5t236 52.5q142 0 256.5 -53.5t189 -148 t114.5 -221.5t40 -275q0 -107 -28 -214.5t-83.5 -203t-131 -169.5t-178 -117.5t-216.5 -43.5q-182 0 -317 88t-204.5 235t-76.5 335h-252v-271q0 -99 8 -170q82 -8 166 -39q3 -76 -12 -143q-80 4 -315 4q-70 0 -176.5 -2t-145.5 -2q-16 63 -16 143zM1096 743 q0 -114 18.5 -211t57 -175t103 -122.5t150.5 -44.5q51 0 100 19.5t64 40.5q43 58 73 154.5t30 224.5q0 114 -19 211t-57 175t-103 122.5t-151 44.5q-51 0 -100 -19.5t-64 -40.5q-43 -58 -72.5 -154.5t-29.5 -224.5z" />
<glyph unicode="&#x42f;" horiz-adv-x="1343" d="M12 139q84 31 166 39l228 416q-123 42 -194 125.5t-71 206.5q0 112 66.5 217t178.5 171t235 66q49 0 177 -5t179 -5q231 0 311 4q15 -67 12 -143q-85 -31 -165 -39q-9 -114 -9 -283v-559q0 -90 9 -170q80 -8 165 -39q3 -76 -12 -143q-80 4 -315 4q-70 0 -176.5 -2 t-145.5 -2q-16 63 -16 143q75 8 178 39q10 49 10 125v258q-80 -6 -172 -6h-14l-217 -557h-121q-184 0 -274 -4q-16 71 -13 143zM461 981q0 -97 81 -159t212 -62h69v418q-114 4 -159 4q-42 0 -88.5 -11t-57.5 -22q-57 -57 -57 -168z" />
<glyph unicode="&#x430;" horiz-adv-x="1323" d="M29 135q53 4 147 31l354 856q106 29 258 29l371 -885q72 -9 137 -31q3 -68 -10 -137q-70 4 -276 4q-63 0 -162.5 -2t-136.5 -2q-15 56 -15 137l162 27l-51 114q-154 7 -262 7h-121l-49 -121l151 -27q3 -68 -10 -137q-78 4 -260 4q-52 0 -122.5 -2t-90.5 -2 q-14 63 -14 137zM481 424h262l-92 209l-2 182h-8z" />
<glyph unicode="&#x431;" horiz-adv-x="1161" d="M45 135q57 5 154 31q8 27 8 90v414q0 134 -8 207q-81 22 -154 28q0 76 14 139q32 0 128.5 -2t162.5 -2h232q195 0 413 4l25 -24q5 -179 -27 -289q-101 -12 -172 0q-10 81 -26 137h-306v-252q125 11 205 11q193 0 309.5 -80t116.5 -211q0 -141 -143 -241.5t-350 -100.5 q-42 0 -128.5 4t-148.5 4q-66 0 -162.5 -2t-128.5 -2q-14 63 -14 137zM489 170h62q184 0 213 18q57 37 57 123q0 79 -65.5 117.5t-200.5 38.5q-46 0 -66 -2v-295z" />
<glyph unicode="&#x432;" horiz-adv-x="1159" d="M41 135q57 5 154 31q8 27 8 90v414q0 134 -8 207q-81 22 -154 28q0 76 14 139q32 0 128.5 -2t162.5 -2q78 0 202 4.5t167 4.5q146 0 242 -70.5t96 -175.5q0 -65 -42.5 -125t-131.5 -100q118 -37 179.5 -101.5t61.5 -140.5q0 -130 -145 -236t-348 -106q-42 0 -130.5 4 t-150.5 4q-66 0 -162.5 -2t-128.5 -2q-14 63 -14 137zM489 170h62q179 0 213 23q57 37 57 118q0 77 -65 112.5t-201 35.5h-66v-289zM489 621h48q215 0 215 137q0 48 -40.5 82t-99.5 34q-21 0 -62.5 -2t-60.5 -2v-249z" />
<glyph unicode="&#x433;" horiz-adv-x="1019" d="M41 135q57 5 154 31q8 27 8 90v414q0 134 -8 207q-81 22 -154 28q0 76 14 139q32 0 128.5 -2t162.5 -2h197q195 0 413 4l25 -24q6 -237 -27 -369q-85 -17 -172 0q0 71 -24 217h-269v-577q0 -60 7 -125q105 -8 204 -31q0 -87 -14 -137q-86 4 -340 4q-66 0 -162.5 -2 t-128.5 -2q-14 63 -14 137z" />
<glyph unicode="&#x434;" horiz-adv-x="1370" d="M27 154l24 24l162 -4q94 163 139.5 330t53.5 373q-72 19 -152 28q0 82 14 139q33 0 128.5 -2t160.5 -2h383q211 0 285 4q15 -70 12 -139q-85 -24 -143 -28q-9 -86 -9 -215v-488q108 0 234 4l24 -24q6 -287 -26 -451q-87 -25 -168 0q-6 149 -25 299h-878 q-16 -104 -27 -299q-46 -13 -91.5 -13t-76.5 13q-32 210 -24 451zM436 174h27h336v694h-189q-8 -346 -174 -694z" />
<glyph unicode="&#x435;" horiz-adv-x="1081" d="M41 135q57 5 154 31q8 27 8 90v414q0 131 -8 207q-81 22 -154 28q0 76 14 139q32 0 128.5 -2t162.5 -2h225q192 0 414 4l25 -24q3 -193 -27 -324q-101 -14 -172 0q-10 93 -27 172h-295v-260l302 6l24 -24q-4 -94 -20 -141l-306 4v-279h318q35 82 63 193q80 8 168 -15 q0 -158 -16 -329l-25 -25q-111 4 -413 4h-234q-65 0 -163.5 -2t-131.5 -2q-14 63 -14 137z" />
<glyph unicode="&#x436;" horiz-adv-x="1777" d="M31 121q75 27 125 29l260 425l-129 240l-183 -12q-29 29 -44.5 79.5t-6.5 96.5q103 60 289 82q46 -40 107 -154l157 -282h137v45q0 134 -8 207q-72 22 -137 28q0 76 14 139q31 0 121 -2t150 -2q196 0 264 4q12 -52 12 -139q-77 -24 -127 -28q-8 -73 -8 -207v-45h137 l160 282q55 110 104 154q182 -21 291 -82q7 -46 -8 -97t-43 -79l-182 12l-129 -229l268 -436q50 -2 125 -29q3 -58 -10 -125q-78 4 -236 4h-127l-258 463h-92v-172q0 -76 8 -125q63 -8 127 -31q0 -85 -12 -137q-68 4 -264 4q-60 0 -150 -2t-121 -2q-14 63 -14 137 q52 5 137 31q8 27 8 90v207h-90l-258 -463h-119q-157 0 -235 -4q-13 67 -10 125z" />
<glyph unicode="&#x437;" horiz-adv-x="999" d="M47 27q3 200 35 329q74 19 164 9q16 -118 45 -179q35 -8 139 -8q51 0 111 9t75 18q32 21 42 48t10 64q0 47 -28 81t-83 46l-190 -16l-23 21q-10 107 35 190l178 -6q64 44 64 117q0 52 -48.5 83t-117.5 31q-96 0 -140 -8q-24 -57 -32 -162q-97 -17 -168 4q-47 118 -47 275 q180 92 426 92q180 0 294.5 -69t114.5 -185q0 -123 -155 -215q105 -36 159 -101.5t54 -152.5q0 -64 -41.5 -129t-112.5 -117.5t-175.5 -85.5t-219.5 -33q-210 0 -365 50z" />
<glyph unicode="&#x438;" horiz-adv-x="1423" d="M41 135q57 5 154 31q8 27 8 90v414q0 134 -8 207q-81 22 -154 28q0 76 14 139q32 0 128.5 -2t162.5 -2q211 0 283 4q12 -52 12 -139q-85 -24 -143 -28q-9 -82 -9 -207v-217l443 354l-6 70q-81 22 -154 28q0 76 14 139q32 0 128.5 -2t162.5 -2q211 0 283 4q12 -52 12 -139 q-85 -24 -143 -28q-8 -73 -8 -207v-379q0 -76 8 -125q73 -8 143 -31q0 -85 -12 -137q-72 4 -283 4q-66 0 -162.5 -2t-128.5 -2q-14 63 -14 137q58 5 154 31q8 27 8 90v342l-445 -360q3 -35 9 -72q73 -8 143 -31q0 -85 -12 -137q-72 4 -283 4q-66 0 -162.5 -2t-128.5 -2 q-14 63 -14 137z" />
<glyph unicode="&#x439;" horiz-adv-x="1423" d="M41 135q57 5 154 31q8 27 8 90v414q0 134 -8 207q-81 22 -154 28q0 76 14 139q32 0 128.5 -2t162.5 -2q211 0 283 4q12 -52 12 -139q-85 -24 -143 -28q-9 -82 -9 -207v-217l443 354l-6 70q-81 22 -154 28q0 76 14 139q32 0 128.5 -2t162.5 -2q211 0 283 4q12 -52 12 -139 q-85 -24 -143 -28q-8 -73 -8 -207v-379q0 -76 8 -125q73 -8 143 -31q0 -85 -12 -137q-72 4 -283 4q-66 0 -162.5 -2t-128.5 -2q-14 63 -14 137q58 5 154 31q8 27 8 90v342l-445 -360q3 -35 9 -72q73 -8 143 -31q0 -85 -12 -137q-72 4 -283 4q-66 0 -162.5 -2t-128.5 -2 q-14 63 -14 137zM369 1468q33 35 92.5 47.5t130.5 -6.5v-24q0 -69 33.5 -116.5t89.5 -47.5q65 0 88 29q10 15 19 61t9 86v12q62 21 128.5 7t99.5 -52q-4 -134 -103 -204t-268 -70q-310 0 -319 278z" />
<glyph unicode="&#x43a;" horiz-adv-x="1290" d="M41 135q57 5 154 31q8 27 8 90v414q0 134 -8 207q-81 22 -154 28q0 76 14 139q32 0 128.5 -2t162.5 -2q211 0 283 4q12 -52 12 -139q-85 -24 -143 -28q-9 -82 -9 -207v-45h185l157 282q61 114 107 154q187 -22 289 -82q7 -46 -8 -97t-43 -79l-183 12l-127 -229l267 -436 q54 -2 124 -29q3 -58 -10 -125q-78 4 -235 4h-127l-258 463h-138v-172q0 -69 9 -125q73 -8 143 -31q0 -85 -12 -137q-72 4 -283 4q-66 0 -162.5 -2t-128.5 -2q-14 63 -14 137z" />
<glyph unicode="&#x43b;" horiz-adv-x="1294" d="M6 139q6 41 34.5 83t65.5 67l166 -70q77 139 115 294.5t47 375.5q-59 15 -158 29q0 75 15 126q33 0 128.5 -2t160.5 -2h368q211 0 283 4q12 -52 12 -139q-85 -24 -143 -28q-8 -73 -8 -207v-379q0 -76 8 -125q73 -8 143 -31q0 -85 -12 -137q-72 4 -283 4q-66 0 -162.5 -2 t-128.5 -2q-14 63 -14 137q57 5 154 31q8 27 8 90v612h-170q-15 -305 -95.5 -524.5t-238.5 -372.5q-176 36 -295 168z" />
<glyph unicode="&#x43c;" horiz-adv-x="1681" d="M23 135q39 3 153 31l84 711q-78 22 -149 28q0 85 14 137q29 0 112.5 -1t143.5 -1q163 0 303 -4l137 -485l8 -186h9l182 669q105 6 268 6q203 0 273 2q13 -69 10 -137q-85 -24 -139 -28l79 -711q80 -9 144 -31q3 -68 -10 -137q-72 4 -273 4q-63 0 -153 -2t-121 -2 q-15 56 -15 137l150 27l-66 516l19 184h-8l-248 -842q-100 -28 -254 -28l-187 686l-14 184h-8l-84 -700l141 -35q3 -63 -10 -129q-74 4 -270 4q-33 0 -103.5 -2t-103.5 -2q-14 53 -14 137z" />
<glyph unicode="&#x43d;" horiz-adv-x="1423" d="M41 135q57 5 154 31q8 27 8 90v414q0 134 -8 207q-81 22 -154 28q0 76 14 139q32 0 128.5 -2t162.5 -2q211 0 283 4q12 -52 12 -139q-85 -24 -143 -28q-9 -82 -9 -207v-47h445v47q0 134 -8 207q-81 22 -154 28q0 76 14 139q32 0 128.5 -2t162.5 -2q211 0 283 4 q12 -52 12 -139q-85 -24 -143 -28q-8 -73 -8 -207v-379q0 -76 8 -125q73 -8 143 -31q0 -85 -12 -137q-72 4 -283 4q-66 0 -162.5 -2t-128.5 -2q-14 63 -14 137q58 5 154 31q8 27 8 90v186q-240 13 -326 13h-119v-164q0 -69 9 -125q73 -8 143 -31q0 -85 -12 -137 q-72 4 -283 4q-66 0 -162.5 -2t-128.5 -2q-14 63 -14 137z" />
<glyph unicode="&#x43e;" horiz-adv-x="1263" d="M59 502q0 81 26 162t77.5 154t121.5 129.5t165 90t202 33.5q173 0 300 -71t190 -190.5t63 -270.5q0 -81 -26 -162.5t-77 -154t-121 -129t-165 -89.5t-201 -33q-175 0 -302.5 71.5t-190 190t-62.5 269.5zM362 561q0 -79 17.5 -147.5t52.5 -123.5t94.5 -86.5t137.5 -31.5 q49 0 93.5 15t55.5 28q88 96 88 264q0 80 -17 148.5t-51.5 124t-93.5 87t-137 31.5q-49 0 -93 -14.5t-58 -26.5q-38 -35 -63.5 -105t-25.5 -163z" />
<glyph unicode="&#x43f;" horiz-adv-x="1396" d="M41 135q57 5 154 31q8 27 8 90v414q0 134 -8 207q-81 22 -154 28q0 76 14 139q32 0 128.5 -2t162.5 -2h705q210 0 282 4q13 -56 13 -139q-84 -23 -144 -28q-8 -73 -8 -207v-379q0 -76 8 -125q75 -8 144 -31q0 -81 -13 -137q-72 4 -282 4q-66 0 -162.5 -2t-128.5 -2 q-15 67 -15 137q57 5 154 31q8 27 8 90v612h-418v-585q0 -61 9 -117q73 -8 143 -31q0 -85 -12 -137q-72 4 -283 4q-66 0 -162.5 -2t-128.5 -2q-14 63 -14 137z" />
<glyph unicode="&#x440;" horiz-adv-x="1116" d="M41 135q57 5 154 31q8 27 8 90v414q0 134 -8 207q-81 22 -154 28q0 76 14 139q32 0 128.5 -2t162.5 -2q58 0 178 4.5t168 4.5q180 0 285.5 -86t105.5 -209q0 -164 -149 -280t-367 -116q-53 0 -78 2v-67q0 -71 9 -127q110 -9 204 -31q0 -85 -12 -137q-90 4 -346 4 q-65 0 -160.5 -2t-128.5 -2q-14 63 -14 137zM489 539h60q59 0 111 8.5t59 15.5q61 54 61 160q0 61 -45 106t-123 45q-82 0 -123 -2v-333z" />
<glyph unicode="&#x441;" horiz-adv-x="1095" d="M59 502q0 80 24.5 159t76.5 152t124.5 129t176 89.5t223.5 33.5q208 0 346 -51q0 -219 -41 -340q-76 -14 -164 12q-5 75 -22 168q-62 10 -156 10q-97 0 -172 -24q-5 -2 -16.5 -14t-28.5 -37t-32 -57t-25.5 -77.5t-10.5 -93.5q0 -175 83.5 -279t244.5 -104q73 0 139 15 q3 24 11.5 87.5t11.5 98.5q88 26 172 12q27 -135 27 -350q-183 -64 -400 -64q-145 0 -259.5 41t-186 113t-109 166t-37.5 205z" />
<glyph unicode="&#x442;" horiz-adv-x="1181" d="M27 1020l24 24q222 -4 412 -4h254q195 0 413 4l25 -24q5 -231 -27 -369q-77 -17 -172 0q-3 96 -24 217h-199v-575q0 -71 6 -127q111 -9 205 -31q3 -73 -12 -137q-90 4 -344 4q-78 0 -194 -2t-154 -2q-17 55 -17 137q75 4 213 31q10 36 10 92v610h-196q-22 -125 -27 -217 q-87 -24 -172 0q-29 146 -24 369z" />
<glyph unicode="&#x443;" horiz-adv-x="1247" d="M25 905q0 82 14 139q37 0 140.5 -2t172.5 -2q145 0 289 4q15 -60 12 -139l-153 -24l219 -324l172 324l-150 24q0 78 9 139q30 0 109 -2t116 -2q115 0 233 4q9 -61 6 -139q-76 -23 -131 -28l-344 -631q-106 -198 -198 -275q-215 48 -314 168q4 40 33 81.5t68 68.5l188 -70 q8 12 51 86l-401 572q-75 22 -141 28z" />
<glyph unicode="&#x444;" horiz-adv-x="1402" d="M20 494q0 96 40 168.5t114 119t170 72.5t217 35v51l-211 27q0 75 17 139q38 0 147.5 -2t185.5 -2q242 0 326 4q14 -50 14 -139l-200 -27v-49q275 -18 408.5 -95t133.5 -251q0 -96 -40.5 -169.5t-115 -120t-170 -73t-216.5 -35.5v-45l200 -28q0 -87 -14 -137q-84 4 -326 4 q-76 0 -185.5 -2t-147.5 -2q-17 64 -17 137l211 28v45q-108 6 -189.5 20t-150 39.5t-111.5 64t-66.5 94t-23.5 129.5zM309 539q0 -116 65.5 -186.5t186.5 -71.5v477q-65 -3 -120 -14.5t-66 -22.5q-30 -27 -48 -77t-18 -105zM840 281q63 0 118 11t68 23q30 27 48 79t18 106 q0 116 -65.5 185.5t-186.5 72.5v-477z" />
<glyph unicode="&#x445;" horiz-adv-x="1277" d="M25 135q89 6 161 31l279 354l-285 357q-82 23 -149 28q0 86 14 139q29 0 126 -2t169 -2q227 0 309 4q13 -56 13 -139l-136 -24l176 -222l158 222l-117 24q0 53 11 139q25 0 104 -2t129 -2q168 0 221 4q11 -82 9 -139q-74 -23 -140 -28l-268 -351l291 -360q70 -8 145 -31 q3 -68 -10 -137q-78 4 -303 4q-68 0 -169.5 -2t-135.5 -2q-15 67 -15 137l142 25l-181 223l-167 -223l112 -25q3 -68 -10 -137q-148 4 -250 4q-52 0 -124 -2t-95 -2q-14 63 -14 137z" />
<glyph unicode="&#x446;" horiz-adv-x="1443" d="M41 135q57 5 154 31q8 27 8 90v414q0 134 -8 207q-81 22 -154 28q0 76 14 139q32 0 128.5 -2t162.5 -2q202 0 272 4q13 -56 13 -139q-81 -24 -133 -28q-9 -82 -9 -207v-496h390v496q0 124 -9 207q-79 23 -145 28q0 76 14 139q32 0 125.5 -2t157.5 -2q211 0 283 4 q12 -52 12 -139q-85 -24 -143 -28q-9 -82 -9 -207v-496q106 0 232 4l24 -24q7 -258 -24 -451q-97 -20 -172 0q-3 47 -29 299h-850q-66 0 -162.5 -2t-128.5 -2q-14 63 -14 137z" />
<glyph unicode="&#x447;" horiz-adv-x="1331" d="M25 905q0 76 14 139q32 0 128.5 -2t162.5 -2q192 0 258 4q14 -50 14 -139q-65 -22 -129 -28v-129q0 -209 170 -209q104 0 199 32v99q0 134 -8 207q-65 22 -125 28q0 71 12 139q29 0 116.5 -2t147.5 -2q211 0 283 4q12 -52 12 -139q-85 -24 -143 -28q-9 -82 -9 -207v-379 q0 -69 9 -125q73 -8 143 -31q0 -85 -12 -137q-72 4 -283 4q-79 0 -195 -2t-155 -2q-17 64 -17 137q79 4 216 31q8 27 8 90v174q-154 -70 -318 -70q-160 0 -249 88t-89 269v160q-78 22 -161 28z" />
<glyph unicode="&#x448;" horiz-adv-x="1904" d="M41 135q57 5 154 31q8 27 8 90v414q0 134 -8 207q-81 22 -154 28q0 76 14 139q32 0 128.5 -2t162.5 -2q181 0 240 4q12 -52 12 -139q-57 -24 -100 -28q-9 -82 -9 -207v-496h320v496q0 134 -8 207q-60 23 -109 28q0 66 13 139q27 0 109 -2t138 -2q181 0 240 4 q12 -52 12 -139q-57 -24 -100 -28q-8 -73 -8 -207v-496h319v496q0 134 -8 207q-60 23 -109 28q0 66 13 139q27 0 109.5 -2t138.5 -2q210 0 282 4q12 -52 12 -139q-85 -24 -143 -28q-8 -73 -8 -207v-379q0 -76 8 -125q73 -8 143 -31q0 -85 -12 -137q-72 4 -282 4h-1213 q-66 0 -162.5 -2t-128.5 -2q-14 63 -14 137z" />
<glyph unicode="&#x449;" horiz-adv-x="1978" d="M41 135q57 5 154 31q8 27 8 90v414q0 134 -8 207q-81 22 -154 28q0 76 14 139q32 0 128.5 -2t162.5 -2q181 0 240 4q12 -52 12 -139q-57 -24 -100 -28q-9 -82 -9 -207v-496h320v496q0 134 -8 207q-60 23 -109 28q0 66 13 139q27 0 109 -2t138 -2q181 0 240 4 q12 -52 12 -139q-57 -24 -100 -28q-8 -73 -8 -207v-496h319v496q0 134 -8 207q-60 23 -109 28q0 66 13 139q27 0 109.5 -2t138.5 -2q210 0 282 4q12 -52 12 -139q-85 -24 -143 -28q-8 -73 -8 -207v-496q107 0 229 4l25 -24q7 -252 -25 -451q-97 -23 -172 0q-4 69 -28 299 h-1385q-66 0 -162.5 -2t-128.5 -2q-14 63 -14 137z" />
<glyph unicode="&#x44a;" horiz-adv-x="1349" d="M37 1020l24 24q222 -4 412 -4h80q260 0 346 4q14 -50 14 -139q-115 -23 -208 -28q-9 -83 -9 -207v-33q113 10 203 10q193 0 309.5 -83t116.5 -218q0 -94 -67.5 -175.5t-181 -129t-242.5 -47.5q-42 0 -130.5 4t-150.5 4q-66 0 -162.5 -2t-128.5 -2q-14 63 -14 137 q56 4 153 31q9 30 9 90v612h-150q-22 -125 -27 -217q-87 -24 -172 0q-29 146 -24 369zM696 170h62q73 0 135 6t76 14q57 47 57 129q0 84 -65 124t-199 40q-46 0 -66 -2v-311z" />
<glyph unicode="&#x44b;" horiz-adv-x="1763" d="M41 135q57 5 154 31q8 27 8 90v414q0 134 -8 207q-81 22 -154 28q0 76 14 139q32 0 128.5 -2t162.5 -2q252 0 332 4q12 -52 12 -139q-107 -23 -192 -28q-9 -82 -9 -207v-33q102 10 183 10q181 0 290 -83t109 -218q0 -94 -63 -175.5t-168 -129t-224 -47.5q-38 0 -122.5 4 t-147.5 4q-66 0 -162.5 -2t-128.5 -2q-14 63 -14 137zM489 170h54q63 0 115.5 6t64.5 14q49 46 49 129q0 84 -58 124t-179 40h-46v-313zM1112 135q58 5 154 31q8 27 8 90v414q0 134 -8 207q-81 22 -154 28q0 76 14 139q32 0 128.5 -2t162.5 -2q211 0 283 4q12 -52 12 -139 q-85 -24 -143 -28q-8 -73 -8 -207v-379q0 -76 8 -125q73 -8 143 -31q0 -85 -12 -137q-72 4 -283 4q-66 0 -162.5 -2t-128.5 -2q-14 63 -14 137z" />
<glyph unicode="&#x44c;" horiz-adv-x="1144" d="M41 135q57 5 154 31q8 27 8 90v414q0 134 -8 207q-81 22 -154 28q0 76 14 139q32 0 128.5 -2t162.5 -2q260 0 348 4q13 -56 13 -139q-114 -23 -209 -28q-9 -82 -9 -207v-33q113 10 205 10q193 0 309.5 -83t116.5 -218q0 -95 -64.5 -176t-178 -128.5t-250.5 -47.5 q-42 0 -130.5 4t-150.5 4q-66 0 -162.5 -2t-128.5 -2q-14 63 -14 137zM489 170h62q74 0 136.5 6t76.5 14q57 47 57 129q0 84 -65 124t-201 40q-46 0 -66 -2v-311z" />
<glyph unicode="&#x44d;" horiz-adv-x="1077" d="M45 27q0 210 35 329q79 19 164 9q13 -100 45 -179q41 -8 110 -8q106 0 189 25q5 -1 18 10t29.5 33t32.5 51.5t29 71t16 84.5l-346 -15l-23 21q0 108 18 166l340 -17q-24 121 -94 188.5t-182 67.5q-74 0 -113 -8q-24 -55 -32 -162q-93 -16 -168 4q-23 52 -33.5 114 t-13.5 161q78 41 180.5 66.5t202.5 25.5q141 0 251 -40t178.5 -111t104 -164.5t35.5 -204.5q0 -88 -28 -172t-84 -155.5t-132.5 -125.5t-180 -84.5t-220.5 -30.5q-148 0 -328 50z" />
<glyph unicode="&#x44e;" horiz-adv-x="1837" d="M41 135q57 5 154 31q8 27 8 90v414q0 134 -8 207q-81 22 -154 28q0 76 14 139q32 0 128.5 -2t162.5 -2q211 0 283 4q12 -52 12 -139q-85 -24 -143 -28q-9 -82 -9 -207v-60h218q19 89 65 170.5t114 147t164 104.5t205 39q123 0 223 -41t165 -113t100 -168.5t35 -209.5 q0 -102 -39.5 -202.5t-109.5 -182.5t-177 -132.5t-231 -50.5q-235 0 -373 136.5t-152 351.5h-207v-168q0 -69 9 -125q73 -8 143 -31q0 -85 -12 -137q-72 4 -283 4q-66 0 -162.5 -2t-128.5 -2q-14 63 -14 137zM999 561q0 -79 15.5 -147.5t46.5 -123.5t83.5 -86.5t121.5 -31.5 q43 0 82.5 15t48.5 28q78 103 78 264q0 109 -25.5 194t-87 141t-152.5 56q-44 0 -82.5 -14.5t-50.5 -26.5q-33 -35 -55.5 -105t-22.5 -163z" />
<glyph unicode="&#x44f;" horiz-adv-x="1220" d="M29 121q78 27 139 29l184 299q-202 70 -202 262q0 82 56.5 160.5t153 128t203.5 49.5q43 0 155 -4.5t156 -4.5q211 0 283 4q12 -52 12 -139q-85 -24 -143 -28q-8 -73 -8 -207v-379q0 -76 8 -125q73 -8 143 -31q0 -85 -12 -137q-72 4 -283 4q-66 0 -162 -2t-128 -2 q-15 67 -15 137q58 5 154 31q8 27 8 90v164q-86 -4 -139 -4h-19l-174 -416h-114q-164 0 -246 -4q-13 67 -10 125zM442 739q0 -64 68.5 -106.5t183.5 -42.5h37v280q-90 4 -121 4q-37 0 -76 -8t-47 -16q-45 -42 -45 -111z" />
<glyph unicode="&#x450;" horiz-adv-x="1081" d="M41 135q57 5 154 31q8 27 8 90v414q0 131 -8 207q-81 22 -154 28q0 76 14 139q32 0 128.5 -2t162.5 -2h225q192 0 414 4l25 -24q3 -193 -27 -324q-101 -14 -172 0q-10 93 -27 172h-295v-260l302 6l24 -24q-4 -94 -20 -141l-306 4v-279h318q35 82 63 193q80 8 168 -15 q0 -158 -16 -329l-25 -25q-111 4 -413 4h-234q-65 0 -163.5 -2t-131.5 -2q-14 63 -14 137zM236 1520l14 49q109 62 264 59l203 -385q-35 -83 -129 -98z" />
<glyph unicode="&#x451;" horiz-adv-x="1081" d="M41 135q57 5 154 31q8 27 8 90v414q0 131 -8 207q-81 22 -154 28q0 76 14 139q32 0 128.5 -2t162.5 -2h225q192 0 414 4l25 -24q3 -193 -27 -324q-101 -14 -172 0q-10 93 -27 172h-295v-260l302 6l24 -24q-4 -94 -20 -141l-306 4v-279h318q35 82 63 193q80 8 168 -15 q0 -158 -16 -329l-25 -25q-111 4 -413 4h-234q-65 0 -163.5 -2t-131.5 -2q-14 63 -14 137zM180 1315q0 72 49.5 132t122.5 60q55 0 100.5 -40t45.5 -95q0 -72 -50.5 -129.5t-121.5 -58.5q-57 0 -101.5 38.5t-44.5 92.5zM612 1315q0 70 51.5 131t120.5 61q58 0 102 -39.5 t44 -95.5q0 -73 -49 -130t-123 -58q-54 0 -100 39t-46 92z" />
<glyph unicode="&#x452;" horiz-adv-x="1454" d="M37 1020l24 24q222 -4 412 -4h320q195 0 413 4l25 -24q5 -176 -27 -277q-77 -17 -172 0q-3 56 -24 125h-265v-307q153 60 281 60q164 0 272.5 -97t108.5 -264q0 -483 -524 -588q-49 46 -52 115q87 49 143.5 100t93 129.5t36.5 176.5q0 127 -55 195.5t-150 68.5 q-58 0 -154 -21v-143q0 -62 7 -127q75 -9 137 -31q3 -68 -10 -137q-74 4 -279 4q-78 0 -194 -2t-154 -2q-17 55 -17 137q75 4 213 31q11 40 11 92v610h-197q-22 -112 -27 -204q-87 -24 -172 0q-29 142 -24 356z" />
<glyph unicode="&#x453;" horiz-adv-x="1019" d="M41 135q57 5 154 31q8 27 8 90v414q0 134 -8 207q-81 22 -154 28q0 76 14 139q32 0 128.5 -2t162.5 -2h197q195 0 413 4l25 -24q6 -237 -27 -369q-85 -17 -172 0q0 71 -24 217h-269v-577q0 -60 7 -125q105 -8 204 -31q0 -87 -14 -137q-86 4 -340 4q-66 0 -162.5 -2 t-128.5 -2q-14 63 -14 137zM401 1227l195 342q125 26 293 26l22 -59l-401 -397q-81 6 -109 88z" />
<glyph unicode="&#x454;" horiz-adv-x="1095" d="M59 502q0 80 24.5 159t76.5 152t124.5 129t176 89.5t223.5 33.5q208 0 346 -51q0 -203 -41 -318q-74 -14 -164 13q-5 66 -22 145q-62 10 -156 10q-97 0 -172 -24q-4 -1 -14.5 -11.5t-25 -31.5t-28.5 -47.5t-25.5 -64t-16.5 -77.5l348 13l22 -23q0 -92 -20 -156l-344 11 q24 -129 104.5 -202t214.5 -73q73 0 139 15q3 22 11.5 79t11.5 88q91 26 172 13q27 -129 27 -332q-183 -64 -400 -64q-145 0 -259.5 41t-186 113t-109 166t-37.5 205z" />
<glyph unicode="&#x455;" horiz-adv-x="989" d="M45 49q5 188 43 320q73 22 172 -9q3 -81 19 -182q76 -26 176 -26q42 0 81.5 9t47.5 15q41 30 41 92q0 40 -44.5 71.5t-138.5 66.5l-137 51q-50 19 -88 41t-73.5 55t-54.5 80t-19 106q0 64 25 118t67.5 91.5t99 64.5t118.5 39.5t126 12.5q90 0 195.5 -18t183.5 -48 q0 -146 -25 -278q-103 -25 -168 10q-7 78 -20 141q-64 21 -168 21q-27 0 -60.5 -5t-40.5 -9q-38 -21 -38 -80q0 -10 3 -19.5t10 -18t14 -15.5t20 -15t22 -13t25 -12t25 -11t27 -11t26 -10l143 -58q51 -21 90 -43.5t76.5 -55.5t57.5 -78t20 -99q0 -155 -121 -259t-322 -104 q-122 0 -240 20.5t-196 51.5z" />
<glyph unicode="&#x456;" horiz-adv-x="692" d="M41 135q57 5 154 31q8 27 8 90v414q0 134 -8 207q-81 22 -154 28q0 76 14 139q32 0 128.5 -2t162.5 -2q211 0 283 4q12 -52 12 -139q-85 -24 -143 -28q-9 -82 -9 -207v-379q0 -69 9 -125q73 -8 143 -31q0 -85 -12 -137q-72 4 -283 4q-66 0 -162.5 -2t-128.5 -2 q-14 63 -14 137z" />
<glyph unicode="&#x457;" horiz-adv-x="692" d="M14 1315q0 70 45.5 129t114.5 59q51 0 93 -39t42 -92q0 -71 -46.5 -127t-112.5 -57q-53 0 -94.5 37.5t-41.5 89.5zM41 135q57 5 154 31q8 27 8 90v414q0 134 -8 207q-81 22 -154 28q0 76 14 139q32 0 128.5 -2t162.5 -2q211 0 283 4q12 -52 12 -139q-85 -24 -143 -28 q-9 -82 -9 -207v-379q0 -69 9 -125q73 -8 143 -31q0 -85 -12 -137q-72 4 -283 4q-66 0 -162.5 -2t-128.5 -2q-14 63 -14 137zM383 1315q0 69 47.5 128.5t112.5 59.5q54 0 94.5 -38.5t40.5 -92.5q0 -72 -45 -127.5t-115 -56.5q-49 0 -92 38t-43 89z" />
<glyph unicode="&#x458;" horiz-adv-x="659" d="M-92 -213q132 46 205 121.5t73 179.5v578q0 119 -10 211q-82 23 -151 28q0 76 14 139q33 0 130.5 -2t162.5 -2q208 0 280 4q13 -56 13 -139q-84 -23 -144 -28q-8 -73 -8 -211v-588q0 -191 -141.5 -297t-388.5 -115q-47 56 -35 121z" />
<glyph unicode="&#x459;" horiz-adv-x="1695" d="M6 139q6 41 34.5 83t65.5 67l166 -70q77 139 115 294.5t47 375.5q-59 15 -158 29q0 75 15 126q33 0 128.5 -2t160.5 -2h368q252 0 332 4q12 -52 12 -139q-107 -23 -192 -28q-8 -73 -8 -207v-33q102 10 182 10q181 0 290 -83t109 -218q0 -94 -62.5 -175.5t-167.5 -129 t-224 -47.5q-38 0 -123 4t-148 4q-66 0 -162.5 -2t-128.5 -2q-14 63 -14 137q57 5 154 31q8 27 8 90v612h-170q-15 -305 -95.5 -524.5t-238.5 -372.5q-176 36 -295 168zM1092 170h53q63 0 115.5 6t64.5 14q49 46 49 129q0 84 -58 124t-179 40h-45v-313z" />
<glyph unicode="&#x45a;" horiz-adv-x="1812" d="M41 135q57 5 154 31q8 27 8 90v414q0 134 -8 207q-81 22 -154 28q0 76 14 139q32 0 128.5 -2t162.5 -2q211 0 283 4q12 -52 12 -139q-85 -24 -143 -28q-9 -82 -9 -207v-47h433v47q0 124 -9 207q-82 22 -153 28q0 76 14 139q32 0 128.5 -2t162.5 -2q252 0 332 4 q12 -52 12 -139q-107 -23 -192 -28q-9 -82 -9 -207v-33q102 10 183 10q181 0 290 -83t109 -218q0 -94 -63 -175.5t-168 -129t-224 -47.5q-38 0 -122.5 4t-147.5 4q-66 0 -162.5 -2t-128.5 -2q-14 63 -14 137q56 4 153 31q9 30 9 90v186q-241 13 -326 13h-107v-164 q0 -69 9 -125q73 -8 143 -31q0 -85 -12 -137q-72 4 -283 4q-66 0 -162.5 -2t-128.5 -2q-14 63 -14 137zM1208 170h54q62 0 115 6t65 14q49 46 49 129q0 84 -58.5 124t-179.5 40h-45v-313z" />
<glyph unicode="&#x45b;" horiz-adv-x="1538" d="M37 1020l24 24q222 -4 412 -4h320q195 0 413 4l25 -24q5 -176 -27 -277q-77 -17 -172 0q-3 56 -24 125h-265v-311q154 64 283 64q157 0 240.5 -76t83.5 -219v-162q89 -9 151 -29q0 -85 -12 -137q-72 4 -283 4q-62 0 -141 -2t-100 -2q-13 58 -13 137q20 2 111 29v129 q0 78 -32.5 119t-112.5 41q-62 0 -175 -23v-137q0 -62 7 -127q75 -9 137 -31q3 -68 -10 -137q-74 4 -279 4q-78 0 -194 -2t-154 -2q-17 55 -17 137q75 4 213 31q11 40 11 92v610h-197q-22 -112 -27 -204q-87 -24 -172 0q-29 142 -24 356z" />
<glyph unicode="&#x45c;" horiz-adv-x="1290" d="M41 135q57 5 154 31q8 27 8 90v414q0 134 -8 207q-81 22 -154 28q0 76 14 139q32 0 128.5 -2t162.5 -2q211 0 283 4q12 -52 12 -139q-85 -24 -143 -28q-9 -82 -9 -207v-45h185l157 282q61 114 107 154q187 -22 289 -82q7 -46 -8 -97t-43 -79l-183 12l-127 -229l267 -436 q54 -2 124 -29q3 -58 -10 -125q-78 4 -235 4h-127l-258 463h-138v-172q0 -69 9 -125q73 -8 143 -31q0 -85 -12 -137q-72 4 -283 4q-66 0 -162.5 -2t-128.5 -2q-14 63 -14 137zM485 1227l195 342q125 26 293 26l22 -59l-401 -397q-81 6 -109 88z" />
<glyph unicode="&#x45d;" horiz-adv-x="1423" d="M41 135q57 5 154 31q8 27 8 90v414q0 134 -8 207q-81 22 -154 28q0 76 14 139q32 0 128.5 -2t162.5 -2q211 0 283 4q12 -52 12 -139q-85 -24 -143 -28q-9 -82 -9 -207v-217l443 354l-6 70q-81 22 -154 28q0 76 14 139q32 0 128.5 -2t162.5 -2q211 0 283 4q12 -52 12 -139 q-85 -24 -143 -28q-8 -73 -8 -207v-379q0 -76 8 -125q73 -8 143 -31q0 -85 -12 -137q-72 4 -283 4q-66 0 -162.5 -2t-128.5 -2q-14 63 -14 137q58 5 154 31q8 27 8 90v342l-445 -360q3 -35 9 -72q73 -8 143 -31q0 -85 -12 -137q-72 4 -283 4q-66 0 -162.5 -2t-128.5 -2 q-14 63 -14 137zM401 1520l15 49q109 62 264 59l203 -385q-35 -83 -129 -98z" />
<glyph unicode="&#x45e;" horiz-adv-x="1247" d="M25 905q0 82 14 139q37 0 140.5 -2t172.5 -2q145 0 289 4q15 -60 12 -139l-153 -24l219 -324l172 324l-150 24q0 78 9 139q30 0 109 -2t116 -2q115 0 233 4q9 -61 6 -139q-76 -23 -131 -28l-344 -631q-106 -198 -198 -275q-215 48 -314 168q4 40 33 81.5t68 68.5l188 -70 q8 12 51 86l-401 572q-75 22 -141 28zM336 1468q33 35 92.5 47.5t130.5 -6.5v-24q0 -69 33.5 -116.5t89.5 -47.5q65 0 88 29q11 15 20 61.5t9 85.5v12q62 21 128 7t99 -52q-4 -134 -103 -204t-268 -70q-310 0 -319 278z" />
<glyph unicode="&#x45f;" horiz-adv-x="1368" d="M41 135q57 5 154 31q8 27 8 90v414q0 134 -8 207q-81 22 -154 28q0 76 14 139q32 0 128.5 -2t162.5 -2q202 0 272 4q13 -56 13 -139q-81 -24 -133 -28q-9 -82 -9 -207v-496h390v496q0 124 -9 207q-79 23 -145 28q0 76 14 139q32 0 125.5 -2t157.5 -2q211 0 283 4 q12 -52 12 -139q-85 -24 -143 -28q-9 -82 -9 -207v-379q0 -69 9 -125q73 -8 143 -31q0 -85 -12 -137q-72 4 -283 4h-217q-24 -248 -27 -319q-97 -20 -188 0q-3 71 -27 319h-217q-66 0 -162.5 -2t-128.5 -2q-14 63 -14 137z" />
<glyph unicode="&#x462;" horiz-adv-x="1566" d="M23 1251l24 25q123 -4 465 -4v121q-98 30 -188 39q0 74 16 137q39 0 145.5 -2t176.5 -2q233 0 315 4q15 -67 12 -137q-84 -31 -174 -39v-121h68q354 0 481 4l25 -25q8 -186 -27 -336q-105 -17 -182 0q-6 80 -31 172h-334v-315q106 14 229 14q218 0 353 -102t135 -258 q0 -78 -42.5 -156t-114.5 -139.5t-176.5 -100t-219.5 -38.5q-49 0 -150 5t-167 5q-83 0 -210 -2t-173 -2q-21 62 -21 143q100 7 244 39q10 49 10 125v782h-250q-26 -160 -31 -274q-77 -17 -182 0q-34 190 -26 438zM815 190h90q72 0 127 5.5t80 12t33 13.5q72 59 72 170 q0 99 -78 152t-228 53q-30 0 -96 -4v-402z" />
<glyph unicode="&#x463;" horiz-adv-x="1400" d="M37 954l24 25q204 -4 385 -4v86q-89 24 -161 29q0 76 14 139q32 0 128.5 -2t162.5 -2q210 0 282 4q13 -56 13 -139q-93 -25 -152 -29v-86h39q196 0 414 4l24 -23q3 -94 -3 -150t-23 -106q-77 -17 -172 0q-2 45 -25 111h-254v-223q118 12 185 12q197 0 319.5 -75 t122.5 -201q0 -80 -63.5 -156t-176.5 -125t-243 -49q-43 0 -133.5 4t-149.5 4q-79 0 -197 -2t-157 -2q-17 64 -17 137q78 4 215 31q8 27 8 90v555h-186q-22 -112 -27 -205q-87 -24 -172 0q-29 142 -24 348zM733 166h68q181 0 209 20q57 35 57 103q0 76 -56 113.5t-159 37.5 q-25 0 -64 -1t-55 -1v-272z" />
<glyph unicode="&#x472;" horiz-adv-x="1421" d="M55 662q0 107 29.5 213.5t88.5 202.5t139 170t189 117.5t230 43.5q150 0 271.5 -53.5t200.5 -148t121 -221.5t42 -275q0 -107 -29.5 -214.5t-88.5 -203t-139 -169.5t-188.5 -117.5t-230.5 -43.5q-152 0 -273.5 54t-200 149t-120 221.5t-41.5 274.5zM375 791 q142 71 239 71q49 0 94.5 -14t77 -31t84.5 -31t115 -14q33 0 51 2q-25 183 -115 295.5t-247 112.5q-56 0 -112.5 -19.5t-72.5 -40.5q-43 -50 -75 -135t-39 -196zM379 643q19 -202 110.5 -327.5t258.5 -125.5q56 0 112 19.5t72 40.5q48 58 81.5 153.5t33.5 223.5 q-63 -31 -130 -51.5t-110 -20.5q-48 0 -93 14t-76 31t-84.5 31t-115.5 14q-39 0 -59 -2z" />
<glyph unicode="&#x473;" horiz-adv-x="1263" d="M59 502q0 81 26 162t77.5 154t121.5 129.5t165 90t202 33.5q173 0 300 -71t190 -190.5t63 -270.5q0 -81 -26 -162.5t-77 -154t-121 -129t-165 -89.5t-201 -33q-175 0 -302.5 71.5t-190 190t-62.5 269.5zM365 614q105 50 165 50q64 0 146.5 -31t165.5 -31h47 q-23 122 -94.5 195t-192.5 73q-49 0 -93 -14.5t-58 -26.5q-74 -67 -86 -215zM367 475q19 -136 92.5 -219.5t204.5 -83.5q49 0 93.5 15t55.5 28q85 93 88 258q-125 -59 -192 -59q-63 0 -145 30.5t-165 30.5h-32z" />
<glyph unicode="&#x474;" horiz-adv-x="1490" d="M6 1231q0 76 17 143q39 0 145 -2t176 -2q262 0 377 4q17 -64 14 -143l-243 -35l262 -729l4 -211h8l293 922q50 159 123 221q186 -28 299 -107q9 -51 -6.5 -106.5t-47.5 -91.5l-176 18l-366 -1087q-126 -35 -277 -35l-438 1202q-97 32 -164 39z" />
<glyph unicode="&#x475;" horiz-adv-x="1347" d="M25 905q0 82 14 139q33 0 128.5 -2t160.5 -2q165 0 329 4q17 -54 13 -139l-195 -24l207 -482v-172h10l242 652q52 139 108 182q170 -21 273 -82q7 -46 -8 -97t-43 -79l-154 12l-309 -795q-115 -28 -258 -28l-373 885q-74 22 -145 28z" />
<glyph unicode="&#x490;" horiz-adv-x="1150" d="M33 141q75 8 178 39q10 49 10 125v604q0 156 -10 283q-103 31 -178 39q0 80 16 143q39 0 146.5 -2t177.5 -2h501q44 150 74 301q83 14 182 -14q0 -236 -22 -461l-25 -27q-159 5 -481 5h-78v-824q0 -99 8 -170q115 -8 232 -39q3 -79 -14 -143q-96 4 -379 4 q-70 0 -176.5 -2t-145.5 -2q-16 63 -16 143z" />
<glyph unicode="&#x491;" horiz-adv-x="1019" d="M41 135q57 5 154 31q8 27 8 90v414q0 134 -8 207q-81 22 -154 28q0 76 14 139q32 0 128.5 -2t162.5 -2h399q44 136 64 238q73 10 174 -12q0 -177 -20 -377l-23 -25q-109 4 -422 4h-29v-577q0 -60 7 -125q105 -8 204 -31q0 -87 -14 -137q-86 4 -340 4q-66 0 -162.5 -2 t-128.5 -2q-14 63 -14 137z" />
<glyph unicode="&#x492;" horiz-adv-x="1116" d="M37 141q75 8 178 39q10 49 10 125v309h-168q-29 85 0 168h168v127q0 156 -10 283q-103 31 -178 39q0 80 16 143q39 0 146.5 -2t177.5 -2h221q354 0 481 4l25 -26q6 -262 -27 -424q-105 -17 -182 0q-9 123 -31 250h-336v-392h224q27 -84 0 -168h-224v-264q0 -90 9 -170 q114 -8 231 -39q3 -79 -14 -143q-96 4 -379 4q-70 0 -176.5 -2t-145.5 -2q-16 63 -16 143z" />
<glyph unicode="&#x493;" horiz-adv-x="1024" d="M45 135q57 5 154 31q8 27 8 90v193h-144q-26 88 0 163h144v58q0 134 -8 207q-81 22 -154 28q0 76 14 139q32 0 128.5 -2t162.5 -2h197q196 0 414 4l24 -24q6 -237 -27 -369q-85 -17 -172 0q0 71 -24 217h-268v-256h223q24 -82 0 -163h-223v-158q0 -69 6 -125 q107 -8 205 -31q0 -83 -15 -137q-86 4 -340 4q-66 0 -162.5 -2t-128.5 -2q-14 63 -14 137z" />
<glyph unicode="&#x496;" horiz-adv-x="2027" d="M12 139q77 31 152 39l315 565l-174 369l-209 -18q-31 36 -46.5 91t-6.5 107q116 79 319 107q54 -52 123 -197l191 -395h164v102q0 144 -11 283q-92 31 -161 39q0 80 16 143q36 0 136.5 -2t164.5 -2q219 0 295 4q15 -67 12 -143q-78 -31 -149 -39q-8 -101 -8 -283v-102 h163l191 395q69 145 123 197q203 -28 319 -107q9 -52 -6.5 -107t-46.5 -91l-209 18l-170 -358l309 -553l187 2l24 -25q8 -292 -26 -512q-108 -18 -189 0q-8 155 -32 336h-211l-318 616h-108v-268q0 -99 8 -170q71 -8 149 -39q3 -76 -12 -143q-76 4 -295 4q-64 0 -164.5 -2 t-136.5 -2q-16 63 -16 143q69 8 161 39q11 54 11 125v313h-109l-317 -618h-123q-180 0 -266 -4q-16 71 -13 143z" />
<glyph unicode="&#x497;" horiz-adv-x="1812" d="M31 121q75 27 125 29l260 425l-129 240l-183 -12q-29 29 -44.5 79.5t-6.5 96.5q103 60 289 82q46 -40 107 -154l157 -282h137v45q0 134 -8 207q-72 22 -137 28q0 76 14 139q31 0 121 -2t150 -2q196 0 264 4q12 -52 12 -139q-77 -24 -127 -28q-8 -73 -8 -207v-45h137 l160 282q55 110 104 154q182 -21 291 -82q7 -46 -8 -97t-43 -79l-182 12l-129 -229l252 -412l159 4l25 -24q7 -252 -25 -451q-97 -23 -172 0q-4 65 -28 297h-191l-258 463h-92v-172q0 -76 8 -125q63 -8 127 -31q0 -85 -12 -137q-68 4 -264 4q-60 0 -150 -2t-121 -2 q-14 63 -14 137q52 5 137 31q8 27 8 90v207h-90l-258 -463h-119q-157 0 -235 -4q-13 67 -10 125z" />
<glyph unicode="&#x498;" horiz-adv-x="1120" d="M43 35q3 244 37 403q77 21 174 11q19 -152 51 -238q50 -14 172 -14q61 0 128.5 14.5t88.5 28.5q72 55 72 172q0 71 -50 123t-143 69l-200 -18l-25 24q-10 121 39 224l191 -7q66 29 99.5 81t33.5 110q0 65 -68.5 111.5t-161.5 46.5q-81 0 -151 -13q-30 -87 -37 -209 q-96 -22 -178 0q-49 149 -52 334q210 115 488 115q131 0 239.5 -41t172 -116t63.5 -169q0 -186 -199 -295q131 -42 197 -130.5t66 -207.5q0 -152 -148 -290t-364 -174q-7 -18 -7 -33q0 -19 82 -47q140 -52 140 -168q0 -104 -117 -194t-279 -120q-51 54 -43 125 q77 30 133 69.5t56 80.5q0 25 -31.5 46.5t-81.5 35.5q-33 10 -33 43q0 69 52 151q-227 3 -406 66z" />
<glyph unicode="&#x499;" horiz-adv-x="999" d="M47 27q3 200 35 329q74 19 164 9q16 -118 45 -179q35 -8 139 -8q51 0 111 9t75 18q32 21 42 48t10 64q0 47 -28 81t-83 46l-190 -16l-23 21q-10 107 35 190l178 -6q64 44 64 117q0 52 -48.5 83t-117.5 31q-96 0 -140 -8q-24 -57 -32 -162q-97 -17 -168 4q-47 118 -47 275 q180 92 426 92q180 0 294.5 -69t114.5 -185q0 -123 -155 -215q105 -36 159 -101.5t54 -152.5q0 -117 -125 -223t-314 -133q-8 -16 -8 -39q0 -19 82 -47q139 -52 139 -168q0 -104 -116.5 -194t-278.5 -120q-51 54 -43 125q77 30 132.5 69.5t55.5 80.5q0 50 -112 82 q-33 10 -33 43q0 76 57 159q-203 4 -350 50z" />
<glyph unicode="&#x49a;" horiz-adv-x="1474" d="M33 141q75 8 178 39q10 49 10 125v604q0 156 -10 283q-103 31 -178 39q0 80 16 143q39 0 145.5 -2t176.5 -2q235 0 315 4q15 -67 12 -143q-84 -31 -166 -39q-8 -101 -8 -283v-102h221l191 395q69 145 123 197q203 -28 319 -107q9 -52 -6.5 -107t-46.5 -91l-209 18 l-170 -358l309 -553l187 2l24 -25q8 -292 -26 -512q-108 -18 -189 0q-8 155 -32 336h-211l-318 616h-166v-268q0 -99 8 -170q82 -8 166 -39q3 -76 -12 -143q-80 4 -315 4q-70 0 -176.5 -2t-145.5 -2q-16 63 -16 143z" />
<glyph unicode="&#x49b;" horiz-adv-x="1325" d="M41 135q57 5 154 31q8 27 8 90v414q0 134 -8 207q-81 22 -154 28q0 76 14 139q32 0 128.5 -2t162.5 -2q211 0 283 4q12 -52 12 -139q-85 -24 -143 -28q-9 -82 -9 -207v-45h185l157 282q61 114 107 154q187 -22 289 -82q7 -46 -8 -97t-43 -79l-183 12l-127 -227l252 -414 l160 4l25 -24q7 -252 -25 -451q-97 -23 -172 0q-3 43 -29 297h-192l-258 463h-138v-172q0 -69 9 -125q73 -8 143 -31q0 -85 -12 -137q-72 4 -283 4q-66 0 -162.5 -2t-128.5 -2q-14 63 -14 137z" />
<glyph unicode="&#x4a0;" horiz-adv-x="1665" d="M23 1350l24 24q127 -4 481 -4h76q285 0 381 4q15 -67 12 -143q-114 -31 -231 -39q-8 -101 -8 -283v-102h221l190 395q69 145 123 197q204 -28 320 -107q9 -52 -6.5 -107t-46.5 -91l-209 18l-170 -358l321 -576q75 -8 152 -39q3 -72 -13 -143q-86 4 -266 4h-133l-319 618 h-164v-268q0 -99 8 -170q82 -8 166 -39q3 -76 -12 -143q-80 4 -316 4q-70 0 -176 -2t-145 -2q-17 67 -17 143q75 8 178 39q11 54 11 125v869h-193q-26 -160 -31 -275q-77 -17 -182 0q-34 190 -26 451z" />
<glyph unicode="&#x4a1;" horiz-adv-x="1497" d="M37 1020l24 24q222 -4 412 -4h80q260 0 346 4q14 -50 14 -139q-115 -23 -208 -28q-9 -83 -9 -207v-45h185l157 282q61 114 107 154q187 -22 289 -82q7 -46 -8.5 -97t-43.5 -79l-182 12l-127 -229l266 -436q55 -2 125 -29q3 -58 -10 -125q-78 4 -235 4h-127l-258 463h-138 v-172q0 -69 9 -125q73 -8 143 -31q0 -85 -12 -137q-72 4 -283 4q-66 0 -162.5 -2t-128.5 -2q-14 63 -14 137q56 4 153 31q9 30 9 90v612h-150q-22 -125 -27 -217q-87 -24 -172 0q-29 146 -24 369z" />
<glyph unicode="&#x4a2;" horiz-adv-x="1673" d="M33 141q75 8 178 39q10 49 10 125v604q0 156 -10 283q-103 31 -178 39q0 80 16 143q39 0 145.5 -2t176.5 -2q235 0 315 4q15 -67 12 -143q-84 -31 -166 -39q-8 -101 -8 -283v-100h549v100q0 156 -10 283q-103 31 -178 39q0 80 16 143q39 0 145.5 -2t176.5 -2q235 0 315 4 q15 -67 12 -143q-84 -31 -166 -39q-8 -101 -8 -283v-710l264 4l25 -25q8 -287 -27 -512q-108 -17 -188 0q-7 142 -33 336h-194q-70 0 -176.5 -2t-145.5 -2q-16 63 -16 143q75 8 178 39q10 49 10 125v297q-229 14 -387 14h-162v-266q0 -99 8 -170q82 -8 166 -39 q3 -76 -12 -143q-80 4 -315 4q-70 0 -176.5 -2t-145.5 -2q-16 63 -16 143z" />
<glyph unicode="&#x4a3;" horiz-adv-x="1497" d="M41 135q57 5 154 31q8 27 8 90v414q0 134 -8 207q-81 22 -154 28q0 76 14 139q32 0 128.5 -2t162.5 -2q211 0 283 4q12 -52 12 -139q-85 -24 -143 -28q-9 -82 -9 -207v-47h445v47q0 134 -8 207q-81 22 -154 28q0 76 14 139q32 0 128.5 -2t162.5 -2q211 0 283 4 q12 -52 12 -139q-85 -24 -143 -28q-8 -73 -8 -207v-496l229 4l25 -24q7 -252 -25 -451q-97 -23 -172 0q-3 47 -29 299h-172q-66 0 -162.5 -2t-128.5 -2q-14 63 -14 137q58 5 154 31q8 27 8 90v186q-240 13 -326 13h-119v-164q0 -69 9 -125q73 -8 143 -31q0 -85 -12 -137 q-72 4 -283 4q-66 0 -162.5 -2t-128.5 -2q-14 63 -14 137z" />
<glyph unicode="&#x4aa;" horiz-adv-x="1228" d="M55 662q0 106 28.5 210.5t87.5 200.5t142 169.5t200.5 117t254.5 43.5q236 0 397 -64q0 -252 -47 -413q-86 -15 -174 14q-5 92 -26 223q-73 13 -191 13q-71 0 -132 -13.5t-83 -29.5q-13 -9 -33.5 -39.5t-45 -79t-41.5 -121.5t-17 -150q0 -118 24 -216t72.5 -172.5 t126.5 -116t180 -41.5q94 0 168 18q19 144 27 248q92 28 182 14q31 -163 31 -428q-219 -80 -453 -80q-2 -6 -2 -22q0 -19 82 -47q139 -52 139 -168q0 -104 -116.5 -194t-278.5 -120q-51 54 -43 125q77 30 132.5 69.5t55.5 80.5q0 50 -112 82q-33 10 -33 43q0 76 57 159 q-183 23 -311 121t-188 242t-60 322z" />
<glyph unicode="&#x4ab;" horiz-adv-x="1095" d="M59 502q0 80 24.5 159t76.5 152t124.5 129t176 89.5t223.5 33.5q208 0 346 -51q0 -219 -41 -340q-76 -14 -164 12q-5 75 -22 168q-62 10 -156 10q-97 0 -172 -24q-5 -2 -16.5 -14t-28.5 -37t-32 -57t-25.5 -77.5t-10.5 -93.5q0 -175 83.5 -279t244.5 -104q73 0 139 15 q3 24 11.5 87.5t11.5 98.5q88 26 172 12q27 -135 27 -350q-172 -61 -394 -64q-4 -16 -4 -30q0 -19 82 -47q139 -52 139 -168q0 -104 -116.5 -194t-278.5 -120q-51 54 -43 125q77 30 133 69.5t56 80.5q0 25 -31.5 46.5t-81.5 35.5q-33 10 -33 43q0 76 62 168 q-119 14 -211.5 60t-151.5 115t-89 155.5t-30 185.5z" />
<glyph unicode="&#x4ae;" horiz-adv-x="1380" d="M6 1227q0 78 17 147q43 0 155.5 -2t186.5 -2q241 0 325 4q15 -67 12 -143l-172 -35l234 -432l221 432l-184 35q0 73 12 143q33 0 125.5 -2t153.5 -2q200 0 266 4q13 -72 10 -143q-77 -31 -151 -39l-375 -688v-154q0 -99 8 -170q114 -8 231 -39q3 -79 -14 -143 q-96 4 -379 4q-83 0 -210 -2t-173 -2q-20 59 -20 143q98 7 243 39q11 54 11 125v203l-369 680q-97 32 -164 39z" />
<glyph unicode="&#x4af;" horiz-adv-x="1239" d="M25 905q0 73 14 139q36 0 134 -2t165 -2q209 0 285 4q15 -79 10 -139l-119 -24l178 -279l164 279l-127 24q0 83 10 139q23 0 102 -2t134 -2q115 0 225 4q11 -60 8 -139q-80 -23 -137 -28l-311 -502v-86q0 -74 8 -123q108 -9 203 -31q3 -79 -13 -137q-88 4 -344 4 q-77 0 -192 -2t-154 -2q-18 58 -18 137q78 4 215 31q8 36 8 90v123l-303 498q-79 23 -145 28z" />
<glyph unicode="&#x4b0;" horiz-adv-x="1380" d="M6 1227q0 78 17 147q43 0 155.5 -2t186.5 -2q241 0 325 4q15 -67 12 -143l-172 -35l234 -432l221 432l-184 35q0 73 12 143q33 0 125.5 -2t153.5 -2q200 0 266 4q13 -72 10 -143q-77 -31 -151 -39l-347 -635h230q27 -84 0 -168h-258v-39q0 -99 8 -170q114 -8 231 -39 q3 -79 -14 -143q-96 4 -379 4q-83 0 -210 -2t-173 -2q-20 59 -20 143q98 7 243 39q11 54 11 125v84h-256q-29 85 0 168h229l-342 631q-97 32 -164 39z" />
<glyph unicode="&#x4b1;" horiz-adv-x="1239" d="M25 905q0 73 14 139q36 0 134 -2t165 -2q209 0 285 4q15 -79 10 -139l-119 -24l178 -279l164 279l-127 24q0 83 10 139q23 0 102 -2t134 -2q115 0 225 4q11 -60 8 -139q-80 -23 -137 -28l-217 -347h182q24 -81 0 -163h-276v-78q0 -74 8 -123q108 -9 203 -31 q3 -79 -13 -137q-88 4 -344 4q-77 0 -192 -2t-154 -2q-18 58 -18 137q78 4 215 31q8 36 8 90v111h-274q-26 88 0 163h182l-211 347q-79 23 -145 28z" />
<glyph unicode="&#x4b2;" horiz-adv-x="1456" d="M6 141q75 8 178 39l342 508l-348 504q-97 32 -164 39q0 76 17 143q36 0 144.5 -2t184.5 -2q252 0 340 4q16 -71 13 -143l-168 -35l229 -332l211 332l-154 35q0 67 13 143q34 0 122.5 -2t141.5 -2q191 0 254 4q13 -72 10 -143q-77 -31 -151 -39l-332 -492l348 -499l186 2 l25 -25q8 -287 -27 -512q-108 -17 -188 0q-7 142 -33 336h-141q-74 0 -187 -2t-153 -2q-17 67 -17 143l181 35l-240 344l-223 -344l147 -35q3 -76 -12 -143q-80 4 -279 4q-55 0 -138.5 -2t-114.5 -2q-17 67 -17 143z" />
<glyph unicode="&#x4b3;" horiz-adv-x="1296" d="M25 135q89 6 161 31l279 354l-285 357q-82 23 -149 28q0 86 14 139q29 0 126 -2t169 -2q227 0 309 4q13 -56 13 -139l-136 -24l176 -222l158 222l-117 24q0 53 11 139q25 0 104 -2t129 -2q168 0 221 4q11 -82 9 -139q-74 -23 -140 -28l-268 -351l283 -352l157 4l25 -24 q7 -252 -25 -451q-97 -23 -172 0q-4 69 -28 299h-117q-68 0 -169.5 -2t-135.5 -2q-15 67 -15 137l142 25l-181 223l-167 -223l112 -25q3 -68 -10 -137q-148 4 -250 4q-52 0 -124 -2t-95 -2q-14 63 -14 137z" />
<glyph unicode="&#x4b6;" horiz-adv-x="1552" d="M6 1231q0 76 17 143q39 0 145 -2t176 -2q221 0 289 4q15 -67 12 -143q-70 -31 -147 -39v-213q0 -137 50.5 -212t151.5 -75q125 0 252 51v166q0 156 -10 283q-95 31 -168 39q0 76 17 143q37 0 140 -2t171 -2q235 0 315 4q16 -71 13 -143q-84 -31 -166 -39q-9 -114 -9 -283 v-710l265 4l24 -25q8 -292 -26 -512q-108 -18 -189 0q-7 142 -33 336h-194q-83 0 -210 -2t-173 -2q-21 62 -21 143q100 7 244 39q10 49 10 125v268q-176 -88 -370 -88q-183 0 -285 110t-102 341v254q-118 34 -189 41z" />
<glyph unicode="&#x4b7;" horiz-adv-x="1404" d="M25 905q0 76 14 139q32 0 128.5 -2t162.5 -2q192 0 258 4q14 -50 14 -139q-65 -22 -129 -28v-129q0 -209 170 -209q104 0 199 32v99q0 134 -8 207q-65 22 -125 28q0 76 14 139q29 0 115.5 -2t146.5 -2q211 0 283 4q12 -52 12 -139q-85 -24 -143 -28q-9 -82 -9 -207v-496 l230 4l24 -24q7 -258 -24 -451q-97 -23 -172 0q-3 47 -29 299h-172q-79 0 -196 -2t-156 -2q-15 67 -15 137q79 4 216 31q8 27 8 90v174q-154 -70 -318 -70q-160 0 -249 88t-89 269v160q-78 22 -161 28z" />
<glyph unicode="&#x4ba;" horiz-adv-x="1466" d="M33 141q75 8 178 39q10 49 10 125v604q0 156 -10 283q-103 31 -178 39q0 80 16 143q39 0 145.5 -2t176.5 -2q235 0 315 4q15 -67 12 -143q-84 -31 -166 -39q-8 -101 -8 -283v-118q195 94 367 94q192 0 291.5 -103.5t99.5 -308.5v-293q90 -8 176 -39q3 -76 -12 -143 q-80 4 -316 4q-63 0 -168.5 -2t-130.5 -2q-14 55 -14 143q102 15 162 39v244q0 127 -45.5 190.5t-151.5 63.5q-116 0 -258 -39v-289q0 -99 8 -170q75 -8 156 -39q3 -76 -12 -143q-78 4 -305 4q-70 0 -176.5 -2t-145.5 -2q-16 63 -16 143z" />
<glyph unicode="&#x4bb;" horiz-adv-x="1320" d="M41 135q57 5 154 31q8 27 8 90v414q0 134 -8 207q-81 22 -154 28q0 76 14 139q32 0 128.5 -2t162.5 -2q211 0 283 4q12 -52 12 -139q-85 -24 -143 -28q-9 -82 -9 -207v-37q157 69 318 69q160 0 249 -87.5t89 -268.5v-180q80 -8 151 -31q0 -85 -12 -137q-72 4 -283 4 q-62 0 -150.5 -2t-119.5 -2q-12 67 -12 137q66 6 139 31v149q0 209 -170 209q-99 0 -199 -35v-198q0 -69 9 -125q56 -8 114 -31q0 -83 -10 -137q-66 4 -256 4q-66 0 -162.5 -2t-128.5 -2q-14 63 -14 137z" />
<glyph unicode="&#x4c0;" horiz-adv-x="741" d="M33 141q75 8 178 39q10 49 10 125v604q0 156 -10 283q-103 31 -178 39q0 80 16 143q39 0 145.5 -2t176.5 -2q235 0 315 4q15 -67 12 -143q-84 -31 -166 -39q-8 -101 -8 -283v-559q0 -99 8 -170q82 -8 166 -39q3 -76 -12 -143q-80 4 -315 4q-70 0 -176.5 -2t-145.5 -2 q-16 63 -16 143z" />
<glyph unicode="&#x4cf;" horiz-adv-x="692" d="M41 135q57 5 154 31q8 27 8 90v414q0 134 -8 207q-81 22 -154 28q0 76 14 139q32 0 128.5 -2t162.5 -2q211 0 283 4q12 -52 12 -139q-85 -24 -143 -28q-9 -82 -9 -207v-379q0 -69 9 -125q73 -8 143 -31q0 -85 -12 -137q-72 4 -283 4q-66 0 -162.5 -2t-128.5 -2 q-14 63 -14 137z" />
<glyph unicode="&#x4d0;" horiz-adv-x="1468" d="M10 141q67 7 164 39l420 1168q122 34 276 34l439 -1202q74 -8 151 -39q3 -76 -12 -143q-76 4 -307 4q-68 0 -178.5 -2t-153.5 -2q-16 63 -16 143l194 35l-78 215q-173 10 -305 10h-137l-78 -225l182 -35q3 -76 -12 -143q-84 4 -287 4q-56 0 -136.5 -2t-108.5 -2 q-17 67 -17 143zM383 1759q34 33 110.5 47t145.5 -4v-20q0 -62 30.5 -104t80.5 -42q66 0 86 27q18 21 18 129v10q69 19 154.5 4t119.5 -47q0 -104 -116.5 -184t-282.5 -80q-164 0 -255 72t-91 192zM526 575h318l-119 330l-4 211h-8z" />
<glyph unicode="&#x4d1;" horiz-adv-x="1323" d="M29 135q53 4 147 31l354 856q106 29 258 29l371 -885q72 -9 137 -31q3 -68 -10 -137q-70 4 -276 4q-63 0 -162.5 -2t-136.5 -2q-15 56 -15 137l162 27l-51 114q-154 7 -262 7h-121l-49 -121l151 -27q3 -68 -10 -137q-78 4 -260 4q-52 0 -122.5 -2t-90.5 -2 q-14 63 -14 137zM319 1468q33 35 93 47.5t131 -6.5v-24q0 -69 33.5 -116.5t89.5 -47.5q65 0 88 29q10 15 19 61t9 86v12q62 21 128.5 7t99.5 -52q-4 -134 -103 -204t-268 -70q-311 0 -320 278zM481 424h262l-92 209l-2 182h-8z" />
<glyph unicode="&#x4d4;" horiz-adv-x="1873" d="M8 141q67 7 164 39l440 1002l-178 49q0 76 17 143q44 0 129.5 -2t130.5 -2h577q354 0 481 4l25 -26q6 -249 -27 -400q-105 -17 -182 0q-9 112 -31 226h-364v-422l364 6l25 -25q-3 -102 -23 -168l-366 6v-372h391q41 113 74 252q84 11 178 -15q0 -164 -23 -411l-24 -27 q-127 4 -481 4h-265q-70 0 -178 -2t-147 -2q-17 67 -17 143q77 8 179 39q10 49 10 125v268h-326l-174 -397l182 -35q3 -76 -12 -143q-84 4 -287 4q-55 0 -136 -2t-109 -2q-17 67 -17 143zM637 750h250v424h-64z" />
<glyph unicode="&#x4d5;" horiz-adv-x="1665" d="M27 135q63 5 147 29l350 702l-145 39q0 74 14 137q38 0 111.5 -1t111.5 -1h537q303 0 412 2l24 -24q6 -208 -24 -322q-98 -14 -172 0q-10 93 -27 172h-295v-293l303 7l23 -23q0 -77 -19 -139l-307 4v-250h320q24 57 63 193q79 9 168 -15q0 -136 -18 -329l-25 -25 q-109 4 -414 4h-237q-65 0 -163.5 -2t-129.5 -2q-14 53 -14 137q59 5 151 31q10 36 10 92v168h-276l-131 -266l149 -25q3 -68 -10 -137q-78 4 -258 4q-53 0 -123.5 -2t-91.5 -2q-14 63 -14 137zM580 575h202v281h-63z" />
<glyph unicode="&#x4d6;" horiz-adv-x="1208" d="M33 141q75 8 178 39q10 49 10 125v604q0 153 -10 283q-103 31 -178 39q0 80 16 143q39 0 145.5 -2t176.5 -2h252q354 0 481 4l24 -26q6 -253 -26 -400q-105 -17 -182 0q-9 112 -31 226h-365v-381l365 12l24 -25q-4 -120 -22 -180l-367 10v-411h391q41 113 74 252 q84 11 178 -15q0 -174 -22 -411l-25 -27q-127 4 -481 4h-264q-70 0 -178.5 -2t-147.5 -2q-16 63 -16 143zM276 1759q34 33 110.5 47t145.5 -4v-20q0 -62 30.5 -104t80.5 -42q66 0 86 27q19 22 19 129v10q69 19 154.5 4t119.5 -47q0 -104 -116.5 -184t-282.5 -80 q-164 0 -255.5 72t-91.5 192z" />
<glyph unicode="&#x4d7;" horiz-adv-x="1081" d="M41 135q57 5 154 31q8 27 8 90v414q0 131 -8 207q-81 22 -154 28q0 76 14 139q32 0 128.5 -2t162.5 -2h225q192 0 414 4l25 -24q3 -193 -27 -324q-101 -14 -172 0q-10 93 -27 172h-295v-260l302 6l24 -24q-4 -94 -20 -141l-306 4v-279h318q35 82 63 193q80 8 168 -15 q0 -158 -16 -329l-25 -25q-111 4 -413 4h-234q-65 0 -163.5 -2t-131.5 -2q-14 63 -14 137zM211 1468q33 35 92.5 47.5t130.5 -6.5v-24q0 -69 33.5 -116.5t89.5 -47.5q65 0 88 29q11 15 20 61.5t9 85.5v12q62 21 128 7t99 -52q-4 -134 -103 -204t-268 -70q-310 0 -319 278z " />
<glyph unicode="&#x4d8;" horiz-adv-x="1275" d="M41 563q0 89 10 133l29 25q364 -4 563 -4h254q-16 209 -113.5 334t-269.5 125q-91 0 -152 -13q-27 -82 -34 -209q-92 -22 -178 0q-47 133 -52 334q98 52 218.5 83.5t240.5 31.5q162 0 290 -53.5t209 -147.5t123 -218t42 -269q0 -142 -49.5 -276.5t-137 -240.5 t-220 -170.5t-286.5 -64.5q-113 0 -201.5 42t-141 105t-86.5 147t-46 158.5t-12 147.5zM375 524q0 -64 12.5 -121.5t37.5 -106.5t68 -77.5t99 -28.5q110 0 180 48q33 23 70.5 100.5t50.5 185.5h-518z" />
<glyph unicode="&#x4d9;" horiz-adv-x="1153" d="M59 446q0 59 9 89l30 26q352 -4 514 -4h174q-16 143 -94 225t-215 82q-80 0 -121 -8q-25 -58 -32 -147q-84 -15 -168 4q-23 53 -33.5 109.5t-13.5 150.5q82 43 188 67.5t213 24.5q145 0 258 -40t183.5 -111t106.5 -164.5t36 -204.5q0 -112 -44 -216.5t-122 -183.5 t-192.5 -126.5t-246.5 -47.5q-101 0 -180 35t-124.5 87t-75.5 119t-40 124t-10 110zM377 397q0 -57 16 -106t55 -84t95 -35q86 0 145 31q21 6 51.5 60t42.5 134h-405z" />
<glyph unicode="&#x4e2;" horiz-adv-x="1593" d="M33 141q75 8 178 39q10 49 10 125v604q0 156 -10 283q-103 31 -178 39q0 80 16 143q39 0 145.5 -2t176.5 -2q235 0 315 4q15 -67 12 -143q-84 -31 -166 -39q-8 -101 -8 -283v-338l545 510l-6 111q-103 31 -178 39q0 80 16 143q39 0 145.5 -2t176.5 -2q235 0 315 4 q15 -67 12 -143q-84 -31 -166 -39q-8 -101 -8 -283v-559q0 -99 8 -170q82 -8 166 -39q3 -76 -12 -143q-80 4 -315 4q-70 0 -176.5 -2t-145.5 -2q-16 63 -16 143q75 8 178 39q10 49 10 125v522l-549 -516q0 -76 8 -131q82 -8 166 -39q3 -76 -12 -143q-80 4 -315 4 q-70 0 -176.5 -2t-145.5 -2q-16 63 -16 143zM479 1513q-42 105 0 199h619q43 -98 0 -199h-619z" />
<glyph unicode="&#x4e3;" horiz-adv-x="1423" d="M41 135q57 5 154 31q8 27 8 90v414q0 134 -8 207q-81 22 -154 28q0 76 14 139q32 0 128.5 -2t162.5 -2q211 0 283 4q12 -52 12 -139q-85 -24 -143 -28q-9 -82 -9 -207v-217l443 354l-6 70q-81 22 -154 28q0 76 14 139q32 0 128.5 -2t162.5 -2q211 0 283 4q12 -52 12 -139 q-85 -24 -143 -28q-8 -73 -8 -207v-379q0 -76 8 -125q73 -8 143 -31q0 -85 -12 -137q-72 4 -283 4q-66 0 -162.5 -2t-128.5 -2q-14 63 -14 137q58 5 154 31q8 27 8 90v342l-445 -360q3 -35 9 -72q73 -8 143 -31q0 -85 -12 -137q-72 4 -283 4q-66 0 -162.5 -2t-128.5 -2 q-14 63 -14 137zM414 1217q-40 107 0 206h598q42 -101 0 -206h-598z" />
<glyph unicode="&#x4e6;" horiz-adv-x="1421" d="M55 662q0 107 29.5 213.5t88.5 202.5t139 170t189 117.5t230 43.5q150 0 271.5 -53.5t200.5 -148t121 -221.5t42 -275q0 -107 -29.5 -214.5t-88.5 -203t-139 -169.5t-188.5 -117.5t-230.5 -43.5q-152 0 -273.5 54t-200 149t-120 221.5t-41.5 274.5zM344 1638 q0 70 49 129.5t119 59.5q53 0 95 -38t42 -93q0 -71 -47 -126.5t-115 -58.5q-56 0 -99.5 37t-43.5 90zM375 743q0 -114 21.5 -211t65 -175t117 -122.5t169.5 -44.5q56 0 112 19.5t72 40.5q48 58 81.5 154.5t33.5 224.5q0 114 -21.5 211t-65 175t-117 122.5t-169.5 44.5 q-56 0 -112.5 -19.5t-72.5 -40.5q-48 -57 -81 -154t-33 -225zM778 1638q0 69 49 129t115 60q57 0 100 -37.5t43 -93.5q0 -71 -47.5 -126.5t-119.5 -58.5q-52 0 -96 37.5t-44 89.5z" />
<glyph unicode="&#x4e7;" horiz-adv-x="1263" d="M59 502q0 81 26 162t77.5 154t121.5 129.5t165 90t202 33.5q173 0 300 -71t190 -190.5t63 -270.5q0 -81 -26 -162.5t-77 -154t-121 -129t-165 -89.5t-201 -33q-175 0 -302.5 71.5t-190 190t-62.5 269.5zM256 1315q0 72 49.5 132t122.5 60q55 0 100 -40t45 -95 q0 -72 -50.5 -129.5t-121.5 -58.5q-57 0 -101 38.5t-44 92.5zM362 561q0 -79 17.5 -147.5t52.5 -123.5t94.5 -86.5t137.5 -31.5q49 0 93.5 15t55.5 28q88 96 88 264q0 80 -17 148.5t-51.5 124t-93.5 87t-137 31.5q-49 0 -93 -14.5t-58 -26.5q-38 -35 -63.5 -105t-25.5 -163z M688 1315q0 70 51.5 131t120.5 61q58 0 102 -39.5t44 -95.5q0 -73 -49 -130t-123 -58q-54 0 -100 39t-46 92z" />
<glyph unicode="&#x4e8;" horiz-adv-x="1421" d="M55 662q0 107 29.5 213.5t88.5 202.5t139 170t189 117.5t230 43.5q150 0 271.5 -53.5t200.5 -148t121 -221.5t42 -275q0 -107 -29.5 -214.5t-88.5 -203t-139 -169.5t-188.5 -117.5t-230.5 -43.5q-152 0 -273.5 54t-200 149t-120 221.5t-41.5 274.5zM377 793h657 q-28 176 -117.5 282.5t-242.5 106.5q-56 0 -112.5 -19.5t-72.5 -40.5q-101 -117 -112 -329zM381 625q10 -94 37 -170.5t70.5 -137t110 -94t149.5 -33.5q56 0 112 19.5t72 40.5q48 57 81 152.5t34 222.5h-666z" />
<glyph unicode="&#x4e9;" horiz-adv-x="1263" d="M59 502q0 81 26 162t77.5 154t121.5 129.5t165 90t202 33.5q173 0 300 -71t190 -190.5t63 -270.5q0 -81 -26 -162.5t-77 -154t-121 -129t-165 -89.5t-201 -33q-175 0 -302.5 71.5t-190 190t-62.5 269.5zM365 610h524q-25 118 -96 189t-191 71q-49 0 -93 -14.5t-58 -26.5 q-33 -31 -56.5 -88t-29.5 -131zM369 467q20 -133 93 -214t202 -81q49 0 93.5 15t55.5 28q83 91 88 252h-532z" />
<glyph unicode="&#x4ee;" horiz-adv-x="1388" d="M6 1231q0 76 17 143q43 0 157.5 -2t188.5 -2q229 0 329 4q16 -71 13 -143l-183 -35l271 -504l211 504l-174 35q0 73 12 143q38 0 127 -2t129 -2q194 0 262 4q13 -72 10 -143q-77 -31 -151 -39l-402 -895q-102 -225 -223 -334q-110 25 -205 81.5t-153 125.5q6 46 36 92 t72 76l236 -90q27 47 61 133l-477 811q-97 32 -164 39zM434 1513q-42 105 0 199h619q43 -98 0 -199h-619z" />
<glyph unicode="&#x4ef;" horiz-adv-x="1247" d="M25 905q0 82 14 139q37 0 140.5 -2t172.5 -2q145 0 289 4q15 -60 12 -139l-153 -24l219 -324l172 324l-150 24q0 78 9 139q30 0 109 -2t116 -2q115 0 233 4q9 -61 6 -139q-76 -23 -131 -28l-344 -631q-106 -198 -198 -275q-215 48 -314 168q4 40 33 81.5t68 68.5l188 -70 q8 12 51 86l-401 572q-75 22 -141 28zM365 1217q-40 107 0 206h598q42 -101 0 -206h-598z" />
<glyph unicode="&#x4f2;" horiz-adv-x="1388" d="M6 1231q0 76 17 143q43 0 157.5 -2t188.5 -2q229 0 329 4q16 -71 13 -143l-183 -35l271 -504l211 504l-174 35q0 73 12 143q38 0 127 -2t129 -2q194 0 262 4q13 -72 10 -143q-77 -31 -151 -39l-402 -895q-102 -225 -223 -334q-110 25 -205 81.5t-153 125.5q6 46 36 92 t72 76l236 -90q27 47 61 133l-477 811q-97 32 -164 39zM516 1548l133 324q101 35 230 35l16 -45l-270 -377q-76 12 -109 63zM836 1548l153 324q101 35 230 35l16 -45l-291 -377q-75 12 -108 63z" />
<glyph unicode="&#x4f3;" horiz-adv-x="1247" d="M25 905q0 82 14 139q37 0 140.5 -2t172.5 -2q145 0 289 4q15 -60 12 -139l-153 -24l219 -324l172 324l-150 24q0 78 9 139q30 0 109 -2t116 -2q115 0 233 4q9 -61 6 -139q-76 -23 -131 -28l-344 -631q-106 -198 -198 -275q-215 48 -314 168q4 40 33 81.5t68 68.5l188 -70 q8 12 51 86l-401 572q-75 22 -141 28zM438 1227l101 346q98 45 227 45l16 -45l-227 -391q-88 6 -117 45zM748 1227l120 346q98 45 228 45l16 -45l-248 -391q-87 6 -116 45z" />
<glyph unicode="&#x2000;" horiz-adv-x="954" />
<glyph unicode="&#x2001;" horiz-adv-x="1909" />
<glyph unicode="&#x2002;" horiz-adv-x="954" />
<glyph unicode="&#x2003;" horiz-adv-x="1909" />
<glyph unicode="&#x2004;" horiz-adv-x="636" />
<glyph unicode="&#x2005;" horiz-adv-x="477" />
<glyph unicode="&#x2006;" horiz-adv-x="318" />
<glyph unicode="&#x2007;" horiz-adv-x="318" />
<glyph unicode="&#x2008;" horiz-adv-x="238" />
<glyph unicode="&#x2009;" horiz-adv-x="381" />
<glyph unicode="&#x200a;" horiz-adv-x="106" />
<glyph unicode="&#x2010;" horiz-adv-x="782" d="M131 410q-18 100 4 206l510 11q24 -108 4 -209z" />
<glyph unicode="&#x2011;" horiz-adv-x="782" d="M131 410q-18 100 4 206l510 11q24 -108 4 -209z" />
<glyph unicode="&#x2012;" horiz-adv-x="782" d="M131 410q-18 100 4 206l510 11q24 -108 4 -209z" />
<glyph unicode="&#x2013;" horiz-adv-x="999" d="M111 422q-18 98 0 188h778q18 -98 0 -188h-778z" />
<glyph unicode="&#x2014;" horiz-adv-x="2048" d="M203 422q-21 90 0 188h1642q24 -90 0 -188h-1642z" />
<glyph unicode="&#x2018;" horiz-adv-x="501" d="M68 1235q0 110 99.5 231t223.5 181q53 -21 68 -74q-125 -142 -125 -242q0 -88 94 -119q-7 -69 -62 -115t-124 -46q-77 0 -125.5 50.5t-48.5 133.5z" />
<glyph unicode="&#x2019;" horiz-adv-x="501" d="M43 1112q125 142 125 242q0 88 -94 119q7 69 62 115t124 46q77 0 125.5 -50.5t48.5 -133.5q0 -110 -99.5 -231t-223.5 -181q-53 21 -68 74z" />
<glyph unicode="&#x201a;" horiz-adv-x="522" d="M43 -262q125 142 125 242q0 87 -94 118q7 69 62 115.5t124 46.5q77 0 125.5 -50.5t48.5 -133.5q0 -110 -99.5 -231t-223.5 -181q-53 21 -68 74z" />
<glyph unicode="&#x201c;" horiz-adv-x="952" d="M68 1235q0 110 99.5 231t223.5 181q53 -21 68 -74q-125 -142 -125 -242q0 -88 94 -119q-7 -69 -62 -115t-124 -46q-77 0 -125.5 50.5t-48.5 133.5zM518 1235q0 110 100 230.5t224 181.5q52 -21 67 -74q-125 -142 -125 -242q0 -88 95 -119q-7 -69 -62.5 -115t-124.5 -46 q-77 0 -125.5 50.5t-48.5 133.5z" />
<glyph unicode="&#x201d;" horiz-adv-x="952" d="M43 1112q125 142 125 242q0 88 -94 119q7 69 62 115t124 46q77 0 125.5 -50.5t48.5 -133.5q0 -110 -99.5 -231t-223.5 -181q-53 21 -68 74zM494 1112q124 141 124 242q0 88 -94 119q7 69 62.5 115t124.5 46q77 0 125.5 -50.5t48.5 -133.5q0 -110 -100 -230.5t-224 -181.5 q-52 21 -67 74z" />
<glyph unicode="&#x201e;" horiz-adv-x="972" d="M43 -262q125 142 125 242q0 87 -94 118q7 69 62 115.5t124 46.5q77 0 125.5 -50.5t48.5 -133.5q0 -110 -99.5 -231t-223.5 -181q-53 21 -68 74zM494 -262q124 141 124 242q0 87 -94 118q7 69 62.5 115.5t124.5 46.5q77 0 125.5 -50.5t48.5 -133.5q0 -110 -100 -230.5 t-224 -181.5q-52 21 -67 74z" />
<glyph unicode="&#x2026;" horiz-adv-x="1867" d="M115 166q0 79 56 131.5t140 52.5t140.5 -52.5t56.5 -131.5q0 -82 -57 -138.5t-140 -56.5t-139.5 56.5t-56.5 138.5zM737 166q0 79 56.5 131.5t140.5 52.5t140 -52.5t56 -131.5q0 -82 -56.5 -138.5t-139.5 -56.5t-140 56.5t-57 138.5zM1360 166q0 79 56 131.5t140 52.5 t140.5 -52.5t56.5 -131.5q0 -82 -57 -138.5t-140 -56.5t-139.5 56.5t-56.5 138.5z" />
<glyph unicode="&#x202f;" horiz-adv-x="381" />
<glyph unicode="&#x2039;" horiz-adv-x="739" d="M86 453q-6 65 14 133l428 409q74 -26 119 -96l-258 -377l268 -368q-41 -78 -135 -115z" />
<glyph unicode="&#x203a;" horiz-adv-x="739" d="M82 879q41 77 135 114l436 -413q6 -66 -14 -134l-428 -409q-74 26 -119 96l258 377z" />
<glyph unicode="&#x205f;" horiz-adv-x="477" />
<glyph unicode="&#x20ac;" horiz-adv-x="1038" d="M76 344q-18 66 0 133h84v25q0 19 4 65h-88q-18 67 0 133h117q55 158 174.5 261.5t283.5 103.5q167 0 287 -49q-3 -203 -41 -320q-70 -11 -154 13q-7 92 -16 145q-45 10 -98 10q-51 0 -92 -8t-50 -16q-5 -4 -15 -19.5t-25 -49t-25 -71.5h196q19 -54 0 -133h-212v-6 q0 -57 4 -84h208q19 -56 0 -133h-180q59 -166 213 -166q56 0 103 15q15 145 16 161q83 26 162 15q24 -115 24 -328q-156 -64 -323 -64q-188 0 -304 99.5t-153 267.5h-100z" />
<glyph unicode="&#x2116;" horiz-adv-x="2041" d="M33 141q75 8 178 39q10 49 10 125v760l-168 250l21 31q105 33 239 36l602 -827v354q0 156 -10 283q-103 31 -178 39q0 80 16 143q43 0 139 -2t144 -2q192 0 270 4q16 -71 13 -143q-84 -31 -166 -39q-8 -101 -8 -283v-655l137 -188l-21 -33q-125 -43 -305 -43l-506 749 v-389q0 -90 9 -170q80 -8 165 -39q3 -76 -12 -143q-80 4 -276 4q-47 0 -141 -2t-136 -2q-16 63 -16 143zM1260 852q0 59 25 117.5t70 106.5t115.5 78t153.5 30q168 0 255 -87t87 -227q0 -59 -24.5 -116.5t-69 -105.5t-115 -77.5t-153.5 -29.5q-168 0 -256 84.5t-88 226.5z M1321 270q-26 88 0 164h584q24 -82 0 -164h-584zM1516 879q0 -44 9.5 -85.5t34 -73.5t60.5 -32q41 0 55 17q37 50 37 139q0 71 -27 130.5t-79 59.5q-41 0 -52 -16q-38 -58 -38 -139z" />
<glyph unicode="&#x2122;" horiz-adv-x="1527" d="M39 1370l16 16h858l91 -286v-111h8l104 387h326q13 -45 8 -90l-78 -20l25 -371l82 -18q9 -50 -6 -91h-316q-15 41 -6 91l72 18l-17 240l2 100h-8l-115 -436q-77 -17 -167 -17l-93 340l-8 123h-8l-27 -348l54 -20q6 -44 -7 -91h-241q-12 38 -6 91l61 20l29 371h-213v-371 l76 -20q0 -51 -7 -91h-317q-12 44 -6 93l82 18v371h-111l-12 -144q-24 -9 -54.5 -9.5t-54.5 9.5z" />
<glyph unicode="&#x25fc;" horiz-adv-x="1044" d="M0 0v1044h1044v-1044h-1044z" />
</font>
</defs>
</svg>
